<svg width="320" height="200" viewBox="0 0 320 200" fill="none" xmlns="http://www.w3.org/2000/svg">
<path d="M77 144.984V137.108H79.6614C80.2794 137.108 80.7845 137.219 81.1768 137.442C81.5716 137.663 81.8639 137.961 82.0536 138.338C82.2434 138.715 82.3382 139.136 82.3382 139.6C82.3382 140.064 82.2434 140.486 82.0536 140.865C81.8665 141.245 81.5767 141.547 81.1844 141.773C80.7922 141.996 80.2896 142.107 79.6768 142.107H77.7692V141.261H79.646C80.0691 141.261 80.4088 141.188 80.6652 141.042C80.9216 140.896 81.1075 140.699 81.2229 140.45C81.3408 140.199 81.3998 139.915 81.3998 139.6C81.3998 139.285 81.3408 139.002 81.2229 138.754C81.1075 138.505 80.9204 138.31 80.6614 138.169C80.4024 138.026 80.0588 137.954 79.6307 137.954H77.9538V144.984H77Z" fill="#FEFEFE"/>
<path d="M87.1238 144.984V137.108H89.7852C90.4006 137.108 90.9057 137.213 91.3006 137.423C91.6954 137.631 91.9877 137.917 92.1775 138.281C92.3672 138.645 92.4621 139.059 92.4621 139.523C92.4621 139.987 92.3672 140.399 92.1775 140.758C91.9877 141.116 91.6967 141.399 91.3044 141.604C90.9121 141.806 90.4109 141.907 89.8006 141.907H87.6469V141.046H89.7699C90.1904 141.046 90.5288 140.984 90.7852 140.861C91.0442 140.738 91.2313 140.564 91.3467 140.338C91.4647 140.11 91.5236 139.838 91.5236 139.523C91.5236 139.208 91.4647 138.932 91.3467 138.696C91.2288 138.46 91.0403 138.278 90.7814 138.15C90.5224 138.019 90.1801 137.954 89.7545 137.954H88.0776V144.984H87.1238ZM90.8314 141.446L92.7697 144.984H91.6621L89.7545 141.446H90.8314Z" fill="#FEFEFE"/>
<path d="M103.946 141.046C103.946 141.877 103.796 142.595 103.496 143.2C103.196 143.805 102.785 144.271 102.262 144.6C101.739 144.928 101.141 145.092 100.47 145.092C99.7978 145.092 99.2004 144.928 98.6774 144.6C98.1543 144.271 97.7428 143.805 97.4428 143.2C97.1428 142.595 96.9928 141.877 96.9928 141.046C96.9928 140.215 97.1428 139.497 97.4428 138.892C97.7428 138.287 98.1543 137.82 98.6774 137.492C99.2004 137.164 99.7978 137 100.47 137C101.141 137 101.739 137.164 102.262 137.492C102.785 137.82 103.196 138.287 103.496 138.892C103.796 139.497 103.946 140.215 103.946 141.046ZM103.023 141.046C103.023 140.364 102.909 139.788 102.681 139.319C102.455 138.85 102.149 138.495 101.762 138.254C101.377 138.013 100.947 137.892 100.47 137.892C99.9927 137.892 99.5607 138.013 99.1735 138.254C98.7889 138.495 98.4825 138.85 98.2543 139.319C98.0287 139.788 97.9159 140.364 97.9159 141.046C97.9159 141.728 98.0287 142.304 98.2543 142.773C98.4825 143.242 98.7889 143.597 99.1735 143.838C99.5607 144.079 99.9927 144.2 100.47 144.2C100.947 144.2 101.377 144.079 101.762 143.838C102.149 143.597 102.455 143.242 102.681 142.773C102.909 142.304 103.023 141.728 103.023 141.046Z" fill="#FEFEFE"/>
<path d="M111.23 144.984H108.799V137.108H111.338C112.102 137.108 112.756 137.265 113.299 137.581C113.843 137.894 114.259 138.344 114.549 138.931C114.839 139.515 114.984 140.215 114.984 141.031C114.984 141.851 114.837 142.557 114.545 143.15C114.253 143.739 113.827 144.193 113.268 144.511C112.709 144.827 112.03 144.984 111.23 144.984ZM109.753 144.138H111.168C111.82 144.138 112.359 144.013 112.788 143.761C113.216 143.51 113.535 143.152 113.745 142.688C113.955 142.224 114.061 141.672 114.061 141.031C114.061 140.395 113.957 139.847 113.749 139.388C113.541 138.927 113.231 138.573 112.818 138.327C112.406 138.078 111.891 137.954 111.276 137.954H109.753V144.138Z" fill="#FEFEFE"/>
<path d="M125.002 137.108H125.955V142.323C125.955 142.861 125.829 143.342 125.575 143.765C125.323 144.186 124.968 144.518 124.509 144.761C124.05 145.002 123.512 145.123 122.894 145.123C122.276 145.123 121.738 145.002 121.279 144.761C120.82 144.518 120.463 144.186 120.21 143.765C119.958 143.342 119.833 142.861 119.833 142.323V137.108H120.786V142.246C120.786 142.631 120.871 142.973 121.04 143.273C121.21 143.57 121.451 143.805 121.763 143.977C122.079 144.146 122.456 144.23 122.894 144.23C123.333 144.23 123.709 144.146 124.025 143.977C124.34 143.805 124.581 143.57 124.748 143.273C124.917 142.973 125.002 142.631 125.002 142.246V137.108Z" fill="#FEFEFE"/>
<path d="M130.679 137.954V137.108H136.586V137.954H134.109V144.984H133.155V137.954H130.679Z" fill="#FEFEFE"/>
<path d="M147.625 141.046C147.625 141.877 147.475 142.595 147.175 143.2C146.875 143.805 146.464 144.271 145.941 144.6C145.418 144.928 144.82 145.092 144.148 145.092C143.477 145.092 142.879 144.928 142.356 144.6C141.833 144.271 141.422 143.805 141.122 143.2C140.822 142.595 140.672 141.877 140.672 141.046C140.672 140.215 140.822 139.497 141.122 138.892C141.422 138.287 141.833 137.82 142.356 137.492C142.879 137.164 143.477 137 144.148 137C144.82 137 145.418 137.164 145.941 137.492C146.464 137.82 146.875 138.287 147.175 138.892C147.475 139.497 147.625 140.215 147.625 141.046ZM146.702 141.046C146.702 140.364 146.588 139.788 146.36 139.319C146.134 138.85 145.828 138.495 145.441 138.254C145.056 138.013 144.625 137.892 144.148 137.892C143.671 137.892 143.239 138.013 142.852 138.254C142.468 138.495 142.161 138.85 141.933 139.319C141.707 139.788 141.595 140.364 141.595 141.046C141.595 141.728 141.707 142.304 141.933 142.773C142.161 143.242 142.468 143.597 142.852 143.838C143.239 144.079 143.671 144.2 144.148 144.2C144.625 144.2 145.056 144.079 145.441 143.838C145.828 143.597 146.134 143.242 146.36 142.773C146.588 142.304 146.702 141.728 146.702 141.046Z" fill="#FEFEFE"/>
<path d="M156.786 139.077C156.739 138.687 156.552 138.385 156.224 138.169C155.896 137.954 155.493 137.846 155.016 137.846C154.668 137.846 154.363 137.903 154.101 138.015C153.842 138.128 153.64 138.283 153.493 138.481C153.35 138.678 153.278 138.902 153.278 139.154C153.278 139.364 153.328 139.545 153.428 139.696C153.531 139.845 153.661 139.969 153.82 140.069C153.979 140.167 154.146 140.247 154.32 140.311C154.495 140.373 154.655 140.423 154.801 140.461L155.601 140.677C155.806 140.731 156.034 140.805 156.286 140.9C156.539 140.995 156.782 141.124 157.012 141.288C157.246 141.45 157.438 141.658 157.589 141.911C157.741 142.165 157.816 142.477 157.816 142.846C157.816 143.272 157.705 143.656 157.482 144C157.261 144.343 156.938 144.616 156.513 144.819C156.089 145.021 155.575 145.123 154.97 145.123C154.406 145.123 153.918 145.032 153.505 144.85C153.095 144.668 152.772 144.414 152.536 144.088C152.302 143.763 152.17 143.384 152.14 142.954H153.124C153.15 143.251 153.25 143.497 153.424 143.692C153.601 143.884 153.824 144.028 154.093 144.123C154.365 144.215 154.657 144.261 154.97 144.261C155.334 144.261 155.661 144.202 155.951 144.084C156.241 143.964 156.47 143.797 156.639 143.584C156.809 143.369 156.893 143.118 156.893 142.831C156.893 142.569 156.82 142.356 156.674 142.192C156.528 142.028 156.336 141.895 156.097 141.792C155.859 141.69 155.601 141.6 155.324 141.523L154.355 141.246C153.74 141.069 153.252 140.817 152.893 140.488C152.534 140.16 152.355 139.731 152.355 139.2C152.355 138.759 152.474 138.374 152.713 138.046C152.954 137.715 153.277 137.459 153.682 137.277C154.09 137.092 154.545 137 155.047 137C155.555 137 156.006 137.091 156.401 137.273C156.796 137.453 157.109 137.699 157.339 138.011C157.573 138.324 157.696 138.679 157.709 139.077H156.786Z" fill="#FEFEFE"/>
<path d="M175.175 137.108V144.984H174.252L169.959 138.8H169.883V144.984H168.929V137.108H169.852L174.159 143.307H174.236V137.108H175.175Z" fill="#FEFEFE"/>
<path d="M180.655 144.984H179.655L182.548 137.108H183.532L186.424 144.984H185.424L183.071 138.354H183.009L180.655 144.984ZM181.025 141.907H185.055V142.754H181.025V141.907Z" fill="#FEFEFE"/>
<path d="M189.549 137.954V137.108H195.457V137.954H192.98V144.984H192.026V137.954H189.549Z" fill="#FEFEFE"/>
<path d="M205.347 137.108H206.301V142.323C206.301 142.861 206.174 143.342 205.92 143.765C205.669 144.186 205.314 144.518 204.855 144.761C204.396 145.002 203.857 145.123 203.239 145.123C202.622 145.123 202.083 145.002 201.624 144.761C201.165 144.518 200.809 144.186 200.555 143.765C200.304 143.342 200.178 142.861 200.178 142.323V137.108H201.132V142.246C201.132 142.631 201.216 142.973 201.386 143.273C201.555 143.57 201.796 143.805 202.109 143.977C202.424 144.146 202.801 144.23 203.239 144.23C203.678 144.23 204.055 144.146 204.37 143.977C204.686 143.805 204.927 143.57 205.093 143.273C205.262 142.973 205.347 142.631 205.347 142.246V137.108Z" fill="#FEFEFE"/>
<path d="M211.455 144.984V137.108H214.116C214.731 137.108 215.237 137.213 215.631 137.423C216.026 137.631 216.319 137.917 216.508 138.281C216.698 138.645 216.793 139.059 216.793 139.523C216.793 139.987 216.698 140.399 216.508 140.758C216.319 141.116 216.028 141.399 215.635 141.604C215.243 141.806 214.742 141.907 214.131 141.907H211.978V141.046H214.101C214.521 141.046 214.86 140.984 215.116 140.861C215.375 140.738 215.562 140.564 215.678 140.338C215.796 140.11 215.854 139.838 215.854 139.523C215.854 139.208 215.796 138.932 215.678 138.696C215.56 138.46 215.371 138.278 215.112 138.15C214.853 138.019 214.511 137.954 214.085 137.954H212.408V144.984H211.455ZM215.162 141.446L217.101 144.984H215.993L214.085 141.446H215.162Z" fill="#FEFEFE"/>
<path d="M221.954 144.984H220.954L223.847 137.108H224.831L227.723 144.984H226.723L224.37 138.354H224.308L221.954 144.984ZM222.324 141.907H226.354V142.754H222.324V141.907Z" fill="#FEFEFE"/>
<path d="M233.153 137.108V144.984H232.199V137.108H233.153Z" fill="#FEFEFE"/>
<path d="M242.622 139.077C242.576 138.687 242.389 138.385 242.061 138.169C241.733 137.954 241.33 137.846 240.853 137.846C240.504 137.846 240.199 137.903 239.938 138.015C239.679 138.128 239.476 138.283 239.33 138.481C239.186 138.678 239.115 138.902 239.115 139.154C239.115 139.364 239.165 139.545 239.265 139.696C239.367 139.845 239.498 139.969 239.657 140.069C239.816 140.167 239.983 140.247 240.157 140.311C240.331 140.373 240.492 140.423 240.638 140.461L241.438 140.677C241.643 140.731 241.871 140.805 242.122 140.9C242.376 140.995 242.618 141.124 242.849 141.288C243.082 141.45 243.275 141.658 243.426 141.911C243.577 142.165 243.653 142.477 243.653 142.846C243.653 143.272 243.541 143.656 243.318 144C243.098 144.343 242.775 144.616 242.349 144.819C241.926 145.021 241.412 145.123 240.807 145.123C240.243 145.123 239.754 145.032 239.342 144.85C238.931 144.668 238.608 144.414 238.372 144.088C238.139 143.763 238.007 143.384 237.976 142.954H238.961C238.986 143.251 239.086 143.497 239.261 143.692C239.438 143.884 239.661 144.028 239.93 144.123C240.202 144.215 240.494 144.261 240.807 144.261C241.171 144.261 241.498 144.202 241.788 144.084C242.077 143.964 242.307 143.797 242.476 143.584C242.645 143.369 242.73 143.118 242.73 142.831C242.73 142.569 242.657 142.356 242.511 142.192C242.365 142.028 242.172 141.895 241.934 141.792C241.695 141.69 241.438 141.6 241.161 141.523L240.192 141.246C239.576 141.069 239.089 140.817 238.73 140.488C238.371 140.16 238.192 139.731 238.192 139.2C238.192 138.759 238.311 138.374 238.549 138.046C238.79 137.715 239.113 137.459 239.519 137.277C239.926 137.092 240.381 137 240.884 137C241.392 137 241.843 137.091 242.238 137.273C242.633 137.453 242.945 137.699 243.176 138.011C243.409 138.324 243.532 138.679 243.545 139.077H242.622Z" fill="#FEFEFE"/>
<path d="M166.43 34.5054C162.675 35.444 160.004 37.5379 158.632 40.6426C157.476 43.314 157.188 46.4909 157.296 56.1299L157.404 65.444L162.242 60.2815C170.798 51.1841 173.614 48.2599 173.289 48.8014C173.108 49.0902 169.787 53.2418 165.96 58.0072L158.921 66.6714L165.202 66.7797C174.986 66.9241 178.704 66.0577 181.412 62.9891C182.206 62.0866 183.217 60.462 183.65 59.3068C184.444 57.3935 184.48 56.7436 184.588 45.6245L184.697 34L176.466 34.0361C171.231 34.0361 167.585 34.2166 166.43 34.5054Z" fill="#FEFEFE"/>
<path d="M134.841 50.3177C134.841 60.3177 135.13 61.7256 137.477 64.1083C138.307 64.9025 139.643 65.805 140.437 66.0939C141.989 66.6354 153.975 67.1408 153.975 66.6715C153.975 66.5271 151.989 63.8556 149.607 60.7509C147.188 57.6462 145.058 54.8664 144.841 54.5776C144.625 54.2888 146.141 55.805 148.235 58.0072C150.293 60.1733 152.747 62.7726 153.722 63.7834L155.455 65.5884L155.347 57.1047C155.238 48.7292 155.238 48.5848 154.3 46.8159C153.108 44.6137 152.459 44 150.184 42.9531C148.56 42.2671 147.621 42.1588 141.628 42.0144L134.841 41.87V50.3177Z" fill="#FEFEFE"/>
<path d="M109.931 54.0722C98.9206 55.3357 83.3971 57.0325 75.4549 57.8267C67.5127 58.657 58.8123 59.6317 56.1408 60.0288C32.9278 63.4945 20.5813 69.379 15.5993 79.3068C15.0939 80.3177 14.2997 82.3393 13.8303 83.8195C13 86.527 13 86.5631 13 106.563C13 128.982 12.9639 128.585 15.6354 134C17.3683 137.574 21.6282 141.906 25.6354 144.253C33.9387 149.09 47.1878 152.375 66.7184 154.397C91.195 156.96 112.964 159.379 148.199 163.458L159.931 164.794L177.44 162.773C200.473 160.065 230.87 156.671 246.213 155.119C260.473 153.639 264.48 153.097 271.7 151.653C289.931 148.007 299.498 142.628 303.939 133.603C306.61 128.115 306.682 127.357 306.682 106.31C306.682 89.2346 306.61 87.7545 305.96 84.9747C303.036 72.7364 293.289 65.9133 272.567 61.6534C265.744 60.2454 259.209 59.379 243.866 57.8267C229.318 56.3465 192.459 52.231 189.968 51.8339C188.74 51.6534 188.596 51.6895 188.704 52.2671C188.812 52.8808 190.762 53.1696 210.473 55.3718C222.386 56.7075 238.487 58.4404 246.213 59.2346C260.798 60.7509 270.184 62.1227 276.718 63.7834C293.217 67.8989 300.978 73.4584 304.444 83.639L305.419 86.527V106.383C305.419 126.202 305.419 126.238 304.588 128.946C300.87 140.679 291.809 146.563 271.267 150.57C263.65 152.051 259.787 152.556 245.166 154.036C230.726 155.516 205.455 158.332 178.451 161.473L159.751 163.639L141.087 161.473C114.047 158.332 88.7762 155.516 74.3358 154.036C59.7148 152.556 55.852 152.051 48.2347 150.57C27.6932 146.563 18.6318 140.679 14.9134 128.946C14.0831 126.238 14.0831 126.202 14.0831 106.383V86.527L15.0578 83.639C18.5235 73.4584 26.2852 67.8989 42.7834 63.7834C48.9206 62.231 58.4513 60.787 69.6426 59.6317C75.4188 59.0541 91.4838 57.3213 105.347 55.7689C128.235 53.2418 130.509 52.9169 130.509 52.3393C130.509 51.9783 130.401 51.6895 130.256 51.7256C130.076 51.7617 120.942 52.8086 109.931 54.0722Z" fill="#FEFEFE"/>
<path d="M111.195 56.9603C101.664 58.0072 87.2959 59.5595 79.2453 60.3538C62.6749 62.0144 58.3789 62.5559 51.3392 63.8195C31.0143 67.4657 21.267 73.1336 17.4764 83.4946C15.8518 87.9711 15.6352 91.2924 15.8157 108.91C15.924 122.628 16.0323 125.119 16.5738 127.141C20.6532 142.051 34.5522 148.332 71.8446 152.051C85.5991 153.422 113.253 156.383 139.895 159.379L159.931 161.617L166.971 160.823C193.722 157.754 231.086 153.675 247.657 152.051C284.949 148.332 298.848 142.051 302.928 127.141C303.469 125.119 303.577 122.628 303.686 108.838C303.866 91.5451 303.686 88.4765 302.17 83.9278C298.632 73.3502 288.668 67.4657 268.162 63.8195C260.473 62.4476 259.209 62.3032 242.061 60.5704C233.216 59.6678 217.873 58.0433 207.946 56.9242C189.931 54.9386 187.982 54.7581 188.343 55.1191C188.632 55.444 217.873 58.6931 244.949 61.4007C252.783 62.1949 262.097 63.3502 265.635 63.9278C287.946 67.7184 298.126 73.5307 301.881 84.6859L302.892 87.6101L303 105.264C303.108 120.426 303.036 123.35 302.531 125.805C300.545 135.588 294.011 141.617 281.05 145.697C272.747 148.332 262.964 149.993 245.671 151.69C230.437 153.206 204.949 155.949 180.437 158.765L159.787 161.112L137.476 158.585C111.411 155.625 89.2814 153.242 73.8301 151.69C56.5377 149.993 46.7543 148.332 38.4511 145.697C25.4908 141.617 18.9565 135.588 16.9709 125.805C16.4655 123.35 16.3933 120.426 16.5016 105.264L16.6099 87.6101L17.6208 84.6859C21.3753 73.5307 31.5197 67.7184 53.8662 63.9278C57.4042 63.3502 66.7182 62.1949 74.5522 61.4007C88.1984 60.0289 112.169 57.4657 124.66 56.0577C127.91 55.6967 130.653 55.2996 130.762 55.1552C131.159 54.7581 128.776 54.9747 111.195 56.9603Z" fill="#FEFEFE"/>
<path d="M69.9315 80.2093C68.6679 80.7509 68.0542 82.6642 68.0542 86.166V89.2346H70.9062C73.4333 89.2346 73.9026 89.1263 74.8051 88.3682C75.7798 87.5379 75.8159 87.3574 75.9242 83.6751L76.0686 79.8483L73.3972 79.8844C71.9531 79.8844 70.4008 80.0288 69.9315 80.2093Z" fill="#FEFEFE"/>
<path d="M35.2021 102.809V125.083L43.4332 124.866C54.3718 124.578 57.9819 123.675 61.1227 120.318C63.5415 117.791 64.5884 113.025 63.5776 109.162C62.5668 105.227 60.4729 102.917 56.7184 101.653L54.9494 101.04L56.0325 100.606C58.8484 99.4151 61.1949 95.3357 61.1949 91.6173C61.1949 87.2852 59.3177 84.1805 55.6715 82.4115C52.639 80.9314 49.9675 80.5704 41.9892 80.5704H35.2021V102.809ZM50.3646 87.7184C52.0975 88.5848 53 90.2816 52.9639 92.7003C52.9278 96.5632 50.9783 98.296 46.3574 98.5487L43.5054 98.7292V92.9169C43.5054 87.213 43.5054 87.1047 44.3357 86.9603C45.7076 86.6715 49.0289 87.1047 50.3646 87.7184ZM50.8339 105.516C54.083 106.419 55.8159 109.523 55.0216 113.061C54.2635 116.383 51.8808 117.718 46.8628 117.754H43.5054V111.437V105.119H46.5018C48.1263 105.119 50.0758 105.3 50.8339 105.516Z" fill="#FEFEFE"/>
<path d="M121.484 102.773V124.975H125.455H129.426L129.498 112.448L129.607 99.8845L133.578 107.827L137.549 115.769H141.159H144.769L148.74 107.827L152.711 99.8845L152.82 112.412L152.892 124.975H156.863H160.834V102.773V80.5704H158.126C153.542 80.5704 154.011 79.9928 147.224 93.7834C143.975 100.426 141.231 105.841 141.123 105.841C141.051 105.841 138.307 100.426 135.058 93.7834C128.307 79.9928 128.776 80.5704 124.191 80.5704H121.484V102.773Z" fill="#FEFEFE"/>
<path d="M243.505 86.9964V93.4585L239.282 93.6751C231.953 94.0722 229.137 95.444 226.899 99.8484L225.635 102.339L225.491 108.188C225.419 112.881 225.491 114.505 225.996 116.166C226.718 118.729 228.379 121.292 230.004 122.412C232.639 124.217 233.758 124.397 243.072 124.542L251.809 124.686V104.686C251.809 92.1227 251.664 84.2166 251.448 83.3863C250.834 81.2202 249.679 80.5704 246.357 80.5704H243.505V86.9964ZM242.928 100.643C243.433 100.823 243.505 101.942 243.505 109.271V117.682L241.52 117.935C237.982 118.368 235.599 117.466 234.48 115.227C233.036 112.375 233.181 104.758 234.769 102.592C235.816 101.148 237.657 100.426 240.148 100.426C241.375 100.426 242.603 100.534 242.928 100.643Z" fill="#FEFEFE"/>
<path d="M68.415 107.321C68.415 118.043 68.5233 121.762 68.8844 122.448C69.462 123.603 71.2309 124.217 74.119 124.217L76.3573 124.253V110.534C76.3573 93.2419 76.4656 93.5668 71.267 93.278L68.415 93.0974V107.321Z" fill="#FEFEFE"/>
<path d="M90.8701 93.7473C84.1192 95.2635 80.3286 100.787 80.3286 109.09C80.3286 117.935 84.6246 123.531 92.2059 124.614C99.1012 125.588 105.13 122.664 107.621 117.141C110.256 111.292 109.426 102.484 105.816 98.0794C102.639 94.2166 96.5741 92.4476 90.8701 93.7473ZM97.9459 100.643C101.015 102.881 101.881 110.967 99.6066 115.805C98.7763 117.538 97.0795 118.477 94.7329 118.477C92.1337 118.477 90.6174 117.538 89.6066 115.3C88.9207 113.856 88.8124 112.953 88.8124 109.09C88.8124 104.975 88.8846 104.397 89.7149 102.809C90.9062 100.498 92.4586 99.5956 95.0579 99.8122C96.177 99.8844 97.3683 100.245 97.9459 100.643Z" fill="#FEFEFE"/>
<path d="M266.249 93.6751C263.541 94.2888 260.617 95.9494 259.173 97.7184C254.227 103.747 254.264 114.433 259.245 120.498C262.711 124.758 271.231 126.094 276.971 123.314C279.426 122.123 282.206 119.054 283.253 116.383C284.227 113.783 284.625 107.466 283.939 104.433C282.892 99.6317 279.823 95.805 275.816 94.3249C273.325 93.3862 268.848 93.0974 266.249 93.6751ZM272.747 100.39C273.578 100.823 274.336 101.689 274.913 102.809C275.744 104.397 275.816 104.939 275.816 109.271C275.816 113.458 275.744 114.108 274.986 115.516C273.758 117.791 272.35 118.549 269.606 118.404C267.007 118.26 265.852 117.43 264.769 115.047C263.325 111.762 263.614 104.686 265.31 102.159C266.827 99.8483 270.22 99.018 272.747 100.39Z" fill="#FEFEFE"/>
<path d="M164.913 104.108C165.094 115.661 165.238 116.744 167.296 119.993C168.596 122.014 170.978 123.495 173.975 124.144C175.347 124.433 179.029 124.614 183.686 124.614H191.159V109.09V93.5667H187.007H182.856V105.624V117.682L181.051 117.935C177.079 118.476 174.264 117.032 173.505 114C173.253 112.989 173.108 108.729 173.108 102.989V93.5667H168.921H164.733L164.913 104.108Z" fill="#FEFEFE"/>
<path d="M195.13 109.09V124.614H199.101H203.072V112.736C203.072 104.036 203.18 100.751 203.505 100.57C203.722 100.426 205.058 100.318 206.466 100.282C209.823 100.282 211.159 100.967 212.206 103.242C212.928 104.83 213 105.661 213.108 114.758L213.253 124.614H217.224H221.195L221.05 113.675C220.942 103.458 220.87 102.664 220.112 100.787C218.523 96.8158 215.78 94.6858 211.339 93.9277C210.076 93.7472 205.888 93.5667 202.097 93.5667H195.13V109.09Z" fill="#FEFEFE"/>
</svg>
