<svg width="320" height="200" viewBox="0 0 320 200" fill="none" xmlns="http://www.w3.org/2000/svg">
<path d="M100.849 38.1739L73.3019 78.5366L70.3067 96.5129H50.9982L53.9114 78.7863L39.3477 38.1739H58.5721L66.5608 60.6439L81.6244 38.1739H100.849Z" fill="#FEFEFE"/>
<path d="M124.256 54.1426C122.119 55.5302 120.387 57.4297 119.054 59.8434C117.724 62.2568 117.058 64.9066 117.058 67.7908C117.058 70.2331 117.556 72.4514 118.555 74.449C119.554 76.4458 120.898 78.0144 122.592 79.1511C124.284 80.2886 126.129 80.8567 128.126 80.8567C130.511 80.8567 132.745 80.1495 134.826 78.7345C136.907 77.32 138.571 75.3932 139.818 72.9508C141.067 70.5097 141.691 67.8193 141.691 64.878C141.691 61.1619 140.678 58.0955 138.654 55.6822C136.628 53.2684 134.09 52.0622 131.038 52.0622C128.653 52.0622 126.391 52.7566 124.256 54.1426ZM147.642 39.5366C152.053 41.8957 155.478 45.1542 157.92 49.3155C160.361 53.4767 161.581 58.2202 161.581 63.5467C161.581 69.8169 160.027 75.4892 156.921 80.5656C153.814 85.6425 149.569 89.6368 144.188 92.5496C138.806 95.4627 132.841 96.9187 126.295 96.9187C120.58 96.9187 115.518 95.7249 111.107 93.3401C106.697 90.9553 103.27 87.6537 100.829 83.4366C98.3869 79.2211 97.167 74.449 97.167 69.1225C97.167 62.8535 98.7203 57.1945 101.828 52.145C104.934 47.0972 109.179 43.1442 114.561 40.2857C119.941 37.4288 125.906 35.9998 132.453 35.9998C138.167 35.9998 143.231 37.1791 147.642 39.5366Z" fill="#FEFEFE"/>
<path d="M221.335 70.8701C220.336 76.0302 218.366 80.5239 215.427 84.3523C212.485 88.1806 208.782 91.1492 204.316 93.257C199.849 95.366 194.841 96.4194 189.294 96.4194C184.356 96.4194 180.043 95.6004 176.353 93.9647C172.663 92.3286 169.806 89.984 167.781 86.9321C165.755 83.8814 164.744 80.3028 164.744 76.1962C164.744 74.7543 164.938 72.9791 165.326 70.8701L172.067 37.2484H191.375L184.634 70.8701C184.467 71.5915 184.384 72.3137 184.384 73.0338C184.384 75.2533 185.077 77.0286 186.465 78.3603C187.851 79.6916 189.599 80.3575 191.708 80.3575C194.149 80.3575 196.34 79.4837 198.283 77.7358C200.223 75.9883 201.472 73.6996 202.028 70.8701L208.769 37.2484H228.076L221.335 70.8701Z" fill="#FEFEFE"/>
<path d="M249.214 65.7934H258.119C260.616 65.7934 262.598 65.0029 264.069 63.4214C265.539 61.8404 266.275 59.7467 266.275 57.1383C266.275 55.4741 265.803 54.1842 264.86 53.2686C263.915 52.353 262.584 51.8955 260.865 51.8955H251.96L249.214 65.7934ZM281.546 67.7077C279.243 71.6479 275.928 74.6985 271.601 76.8622L279.258 95.5872H257.453L253.458 80.4408H246.218L243.222 95.5872H223.914L235.566 37.2485H263.778C270.602 37.2485 275.845 38.7044 279.507 41.6172C283.169 44.5304 285 48.6784 285 54.0591C285 59.2188 283.848 63.7688 281.546 67.7077Z" fill="#FEFEFE"/>
<path d="M74.4476 124.882C75.4464 123.939 75.9458 122.747 75.9458 121.303C75.9458 120.25 75.6261 119.431 74.9884 118.848C74.3499 118.266 73.4488 117.974 72.284 117.974H63.0459L61.3816 126.297H70.6197C72.1722 126.297 73.4488 125.826 74.4476 124.882ZM71.2438 146.52C72.5469 145.521 73.1995 144.246 73.1995 142.691C73.1995 141.582 72.7419 140.708 71.826 140.07C70.9104 139.433 69.6482 139.113 68.0399 139.113H58.8851L57.1376 148.018H66.2916C68.2892 148.018 69.9398 147.519 71.2438 146.52ZM90.6342 135.326C92.2156 137.519 93.0066 140.112 93.0066 143.108C93.0066 146.881 91.8541 150.21 89.5526 153.094C87.2498 155.98 84.0459 158.213 79.9406 159.794C75.8336 161.375 71.1734 162.166 65.9591 162.166H35L46.6518 103.826H76.1951C82.5208 103.826 87.5136 104.978 91.175 107.28C94.8369 109.583 96.6684 112.677 96.6684 116.56C96.6684 119.834 95.5036 122.802 93.1726 125.465C90.8429 128.127 87.8179 129.987 84.1018 131.04C86.875 131.706 89.0532 133.135 90.6342 135.326Z" fill="#FEFEFE"/>
<path d="M153.425 118.474H123.382L121.884 125.631H149.264L146.351 140.278H118.971L117.473 147.518H148.348L145.436 162.165H95.3354L106.987 103.827H156.338L153.425 118.474Z" fill="#FEFEFE"/>
<path d="M198.864 104.326C203.246 105.603 207.02 107.295 210.182 109.402L201.61 124.133C198.669 122.302 195.326 120.693 191.582 119.306C187.837 117.919 184.743 117.225 182.302 117.225C181.137 117.225 180.207 117.448 179.515 117.891C178.82 118.336 178.474 119.029 178.474 119.972C178.474 121.192 179.181 122.164 180.596 122.884C182.01 123.606 184.244 124.383 187.296 125.215C191.068 126.325 194.189 127.434 196.659 128.543C199.127 129.654 201.277 131.346 203.108 133.62C204.939 135.896 205.854 138.892 205.854 142.608C205.854 147.158 204.647 151 202.234 154.135C199.821 157.27 196.603 159.585 192.581 161.084C188.556 162.582 184.133 163.33 179.306 163.33C174.146 163.33 169.028 162.484 163.952 160.792C158.875 159.1 154.56 156.785 151.011 153.843L159.665 139.279C162.329 141.832 165.782 144.01 170.026 145.812C174.272 147.616 177.892 148.517 180.887 148.517C182.44 148.517 183.661 148.225 184.549 147.643C185.436 147.061 185.881 146.187 185.881 145.022C185.881 143.746 185.16 142.762 183.717 142.067C182.273 141.374 179.973 140.611 176.809 139.779C173.092 138.78 169.999 137.754 167.531 136.699C165.061 135.646 162.924 134.023 161.122 131.831C159.318 129.64 158.417 126.769 158.417 123.217C158.417 119.056 159.554 115.394 161.83 112.232C164.104 109.069 167.281 106.643 171.359 104.95C175.437 103.258 180.139 102.412 185.465 102.412C190.013 102.412 194.48 103.05 198.864 104.326Z" fill="#FEFEFE"/>
<path d="M267.356 103.827L264.277 119.056H247.632L238.977 162.166H219.669L228.324 119.056H211.763L214.842 103.827H267.356Z" fill="#FEFEFE"/>
</svg>
