<svg width="320" height="200" viewBox="0 0 320 200" fill="none" xmlns="http://www.w3.org/2000/svg">
<path d="M36.2757 66.202C22.5578 69.7917 12.5578 80.7532 10.3783 94.5994C7.55776 112.933 20.827 130.689 39.609 133.638C56.5321 136.266 73.1347 125.753 78.2629 109.022C79.6732 104.599 79.6732 94.5353 78.327 90.1763C76.5962 84.6635 74.0962 80.4968 69.8014 75.9456C64.9937 70.8173 60.186 67.9968 53.0706 66.202C46.9808 64.5994 42.3655 64.5994 36.2757 66.202ZM52.4937 72.0994C59.9937 73.9584 67.3655 80.3045 70.9552 87.8045C72.8783 91.9071 73.0065 92.5481 73.0065 99.5994C73.0065 106.843 72.9424 107.035 70.5706 111.843C60.5065 132.228 33.1347 133.702 20.3142 114.599C14.9296 106.587 14.9296 92.2917 20.2501 84.4712C22.4937 81.2661 25.4424 78.3815 26.5321 78.3815C28.6475 78.3815 29.0962 81.2661 29.0962 95.3045C29.0962 110.817 29.609 113.253 33.3911 117.164C41.1475 125.112 54.0962 123.125 58.968 113.189C59.7373 111.587 60.1219 109.343 60.1219 106.587C60.1219 99.2148 56.9808 95.2404 47.8783 91.2661C40.9552 88.1891 38.0065 86.1379 36.3398 83.1891C34.8014 80.4968 34.4167 76.5225 35.5065 74.5353C37.3655 71.0738 44.4808 70.0481 52.4937 72.0994ZM50.0578 99.4071C51.0834 100.112 52.4937 101.907 53.0706 103.317C54.7373 106.907 54.0321 109.984 50.8911 113.125C48.6475 115.369 48.1988 115.561 44.9296 115.561C41.7885 115.561 41.0193 115.305 39.0321 113.574C36.1475 111.01 35.0578 107.484 36.0193 104.151C37.8142 98.3173 45.0578 95.8815 50.0578 99.4071Z" fill="#FEFEFE"/>
<path d="M95.25 77.2276C94.0962 78.3814 94.1603 106.458 95.3141 110.881C96.4039 114.984 98.4551 118.061 101.468 120.048C103.455 121.394 104.545 121.651 109.032 121.651C113.904 121.651 114.417 121.522 116.724 119.663C118.071 118.574 119.865 116.394 120.763 114.856C122.173 112.292 122.365 111.33 122.365 104.984C122.365 97.3558 121.468 94.5353 118.071 91.3942C113.647 87.2276 105.827 86.907 100.955 90.625C100.122 91.3301 99.2244 91.6506 98.9039 91.4583C98.5833 91.266 98.3269 88.1891 98.3269 84.5353C98.3269 78.5096 97.8141 76.4583 96.4039 76.4583C96.2116 76.4583 95.6987 76.7788 95.25 77.2276ZM113.712 92.8045C120.378 96.266 121.019 111.779 114.673 116.715C110.25 120.24 103.263 118.446 100.25 112.997C98.9039 110.561 98.6475 109.279 98.6475 104.984C98.6475 99.0224 100.058 95.625 103.455 93.2532C105.955 91.5865 110.891 91.3301 113.712 92.8045Z" fill="#FEFEFE"/>
<path d="M263.84 77.484C262.109 78.7019 262.045 79.984 263.712 81.3942C265.571 82.9968 265.314 83.766 262.686 85.0481C260.827 85.8814 260.507 86.3301 261.084 86.9071C262.302 88.125 266.404 85.5609 267.75 82.7404C268.648 80.8814 268.776 80.0481 268.199 79.0865C267.109 76.9712 265.378 76.3942 263.84 77.484Z" fill="#FEFEFE"/>
<path d="M301.66 79.8558C298.776 82.9328 300.763 87.3558 304.93 87.3558C307.366 87.3558 309.866 85.1763 309.866 83.061C309.866 78.9584 304.481 76.9071 301.66 79.8558ZM307.43 80.1122C309.802 82.2276 308.263 86.7148 305.186 86.7148C302.302 86.7148 300.378 83.7661 301.596 81.3943C303.007 78.7661 305.378 78.2533 307.43 80.1122Z" fill="#FEFEFE"/>
<path d="M303.904 80.7532C303.648 80.9455 303.52 82.1635 303.52 83.4455C303.584 84.7276 303.712 85.2404 303.904 84.5994C304.289 83.2532 305.122 83.1891 305.891 84.5353C306.404 85.4327 306.532 85.1763 306.789 83.5737C306.981 82.0353 306.789 81.3301 305.955 80.8814C304.609 80.1763 304.417 80.1763 303.904 80.7532ZM305.443 82.4199C304.609 83.2532 303.776 82.6122 304.417 81.6506C304.609 81.266 305.122 81.1378 305.507 81.3301C305.891 81.5865 305.891 81.9712 305.443 82.4199Z" fill="#FEFEFE"/>
<path d="M218.968 81.7148C218.007 82.6763 217.878 114.087 218.84 117.612C219.225 118.958 220.186 120.433 220.955 121.01C222.558 122.099 227.878 122.292 228.904 121.266C230.25 119.92 229.096 118.766 226.532 118.766C222.109 118.766 221.981 118.317 222.173 104.471L222.366 92.1635L225.955 91.9712C228.712 91.843 229.673 92.0353 230.442 92.9327C231.019 93.5737 233.648 99.9199 236.404 107.099C241.084 119.407 241.276 120.304 240.571 122.484C239.225 126.907 238.327 127.74 235.186 127.74C233.455 127.74 231.981 128.125 231.34 128.766C229.673 130.433 231.276 131.587 235.25 131.587C241.084 131.587 241.468 130.946 249.93 108.83C253.968 98.2532 257.173 89.2148 256.981 88.766C256.532 87.6122 254.225 87.8045 253.519 89.0866C253.199 89.7276 251.019 95.3686 248.648 101.587C246.276 107.869 243.968 112.997 243.519 112.997C243.071 112.997 241.66 110.176 240.314 106.715C233.968 89.984 234.225 90.625 232.109 89.4712C230.955 88.8942 228.327 88.2532 226.212 88.0609L222.366 87.6763L222.045 84.4712C221.725 81.1378 220.571 80.1122 218.968 81.7148Z" fill="#FEFEFE"/>
<path d="M135.186 89.2147C132.045 90.625 129.417 93.1891 127.622 96.6506C126.468 98.766 126.211 100.304 126.211 105.304C126.211 110.625 126.404 111.843 127.878 114.599C128.84 116.522 130.57 118.574 132.237 119.728C134.801 121.522 135.378 121.651 140.506 121.651C145.442 121.651 146.404 121.458 148.711 119.92C151.981 117.804 153.84 115.048 153.006 113.702C151.917 112.035 151.211 112.228 148.263 115.176C146.211 117.163 144.673 118.061 142.75 118.381C137.109 119.343 131.788 116.202 130.378 111.074C129.224 106.715 129.16 106.715 141.724 106.458C154.417 106.266 154.737 106.074 154.737 101.202C154.673 91.8429 143.904 85.2404 135.186 89.2147ZM146.019 93.125C148.455 94.5994 151.083 98.9583 150.763 101.01C150.57 102.42 150.378 102.42 140.506 102.612L130.378 102.804V100.753C130.378 98.1891 132.429 94.8558 135.058 93.1891C137.814 91.3942 143.263 91.3942 146.019 93.125Z" fill="#FEFEFE"/>
<path d="M165.314 89.2148C160.378 91.4584 157.429 96.9712 160.891 97.484C161.788 97.6122 162.429 97.1635 162.942 96.0097C164.096 93.5097 167.365 91.843 171.276 91.843C175.378 91.843 176.852 92.5481 178.135 95.0481C180.506 99.6635 178.84 101.266 170.699 102.164C160.25 103.317 156.66 106.01 156.66 112.805C156.66 118.702 160.827 121.971 168.327 121.971C173.776 121.971 177.045 120.946 179.481 118.51C182.237 115.753 182.942 112.805 182.942 103.83C182.942 95.6891 182.301 93.125 179.673 90.8173C176.34 87.8686 169.801 87.1635 165.314 89.2148ZM178.968 107.869C179.288 111.138 178.07 114.599 175.891 116.394C172.301 119.407 163.711 119.215 161.468 116.01C160.955 115.24 160.506 113.51 160.506 112.163C160.506 108.574 162.558 106.843 167.301 106.266C169.417 106.01 171.404 105.753 171.724 105.625C172.109 105.497 173.84 105.433 175.57 105.497C178.711 105.625 178.776 105.625 178.968 107.869Z" fill="#FEFEFE"/>
<path d="M187.237 88.3815C186.981 88.6379 186.789 94.4713 186.789 101.394C186.789 113.253 186.917 114.087 188.263 116.523C192.173 123.382 204.032 123.894 208.648 117.42C210.058 115.369 210.186 114.535 210.507 104.92C210.763 95.8815 210.955 94.3431 212.045 93.1892C212.75 92.42 213.968 91.8431 214.801 91.8431C216.019 91.8431 216.276 91.5225 216.276 89.92C216.276 87.6764 215.507 87.5482 211.917 88.9584C207.942 90.561 207.301 92.3559 207.301 101.907C207.301 111.523 206.66 114.215 204.032 116.458C201.34 118.766 198.327 119.151 195.378 117.74C190.635 115.369 190.378 114.407 189.994 100.625C189.737 90.1764 189.545 88.3174 188.712 88.1251C188.135 88.061 187.494 88.1251 187.237 88.3815Z" fill="#FEFEFE"/>
<path d="M264.481 88.7661C263.904 89.343 263.711 93.3814 263.711 102.997C263.711 115.369 263.84 116.715 264.993 118.638C266.468 121.01 268.455 121.971 272.173 121.971C274.224 121.971 275.186 121.522 276.917 119.792L279.096 117.612V108.253C279.096 98.3173 279.609 95.8173 282.237 93.5097C284.096 91.843 289.224 91.3943 291.788 92.7404C295.378 94.5994 295.763 96.2661 295.763 108.958C295.763 115.24 296.019 120.753 296.34 121.202C296.66 121.715 297.429 121.971 298.07 121.843C299.224 121.651 299.288 120.817 299.481 109.471C299.609 97.8686 299.545 97.1635 298.199 94.4071C293.84 85.8814 281.404 86.0097 276.724 94.5994C275.827 96.2661 275.57 98.6379 275.378 106.779C275.122 116.202 275.058 116.907 273.776 117.805C271.917 119.087 270.378 119.022 268.84 117.484C267.622 116.266 267.558 115.369 267.558 102.869C267.558 90.1763 267.301 87.9968 265.635 87.9968C265.442 87.9968 264.929 88.3173 264.481 88.7661Z" fill="#FEFEFE"/>
</svg>
