<svg width="320" height="200" viewBox="0 0 320 200" fill="none" xmlns="http://www.w3.org/2000/svg">
<path d="M117.471 49.1033C107.129 53.4578 91.5252 65.07 80.0037 76.9544L73.6533 83.4862L83.1789 75.14C107.129 54.1836 126.362 45.3837 130.263 53.9114C130.807 55.1815 131.079 57.0866 130.807 58.1753C130.353 59.7175 130.444 59.8082 131.17 58.7196C132.531 56.8145 132.44 49.3754 131.079 48.0146C129.355 46.2909 123.096 46.8353 117.471 49.1033Z" fill="#FEFEFE"/>
<path d="M38.1816 53.73C37.0022 55.4537 36.7301 57.631 36.9115 62.167C37.093 65.5236 37.093 70.604 37.0022 73.4163C36.9115 77.6801 37.1837 78.7688 38.8166 79.8574C39.8146 80.5832 43.0805 86.0264 45.8928 92.0139C48.7959 97.9107 53.0597 105.713 55.3277 109.341C57.6864 112.97 59.5916 116.145 59.5916 116.327C59.5916 117.053 48.2515 115.873 40.0867 114.331C26.388 111.7 22.7592 107.981 29.5632 103.445C33.5549 100.723 32.557 100.814 26.388 103.717C18.8582 107.255 17.951 110.793 23.8478 113.605C28.1117 115.601 35.2786 116.69 49.2495 117.416L61.1338 117.96L65.7605 123.947C79.6407 142.091 96.6961 154.611 104.044 151.98C106.766 151.073 108.58 147.898 108.49 144.178C108.49 141.729 108.49 141.729 107.492 143.815C104.589 149.803 93.7023 146.446 82.0902 136.013C76.647 131.114 66.1234 118.323 60.2266 109.251C53.604 99.1808 44.8042 81.3997 45.4392 79.3131C45.8021 78.4966 46.2557 77.0451 46.5279 76.0472C46.8907 74.9585 46.165 73.4163 44.2599 71.5112C41.9919 69.1524 41.4475 67.8824 41.4475 64.6164C41.4475 56.3609 44.8949 53.6393 52.0618 56.1795C54.2391 56.9959 55.9628 57.4495 55.9628 57.2681C55.9628 57.0867 53.7855 55.7259 51.2453 54.1836C45.0763 50.6455 40.2682 50.5548 38.1816 53.73Z" fill="#FEFEFE"/>
<path d="M114.023 90.9253V119.502H117.652H121.281V105.531C121.281 92.014 121.372 91.3789 123.458 89.0202C126.452 85.4821 131.532 85.4821 134.526 89.0202C136.613 91.3789 136.703 92.014 136.703 105.531V119.502H140.332H143.961V103.989C143.961 86.0265 143.235 83.3956 137.52 80.4925C132.803 78.0431 128.629 78.2245 124.547 80.9461L121.281 83.1234V72.7813V62.3485H117.652H114.023V90.9253Z" fill="#FEFEFE"/>
<path d="M287.299 87.2058C287.299 100.905 287.662 113.152 288.207 114.422C289.204 117.143 293.378 119.502 297.279 119.502C299.819 119.502 300 119.321 300 115.873C300 112.97 299.637 112.245 298.367 112.245C294.738 112.245 294.557 110.975 294.557 86.2079V62.3485H290.928H287.299V87.2058Z" fill="#FEFEFE"/>
<path d="M90.0738 80.9461C86.8986 83.1233 86.8079 83.1233 86.8079 81.3089C86.8079 79.5852 86.5357 79.676 83.1791 82.3069L79.5503 85.2099V105.713V126.306L83.1791 130.389L86.8079 134.471V125.127C86.8079 120.046 86.9893 115.873 87.2615 115.873C87.4429 115.873 88.9852 116.69 90.6182 117.688C96.4242 121.226 104.317 119.411 107.674 113.787C109.216 111.337 109.488 109.16 109.488 99.1808C109.488 88.9294 109.216 87.115 107.583 84.3934C103.863 78.4059 96.0614 76.8636 90.0738 80.9461ZM100.144 88.0222C101.867 89.7459 103.228 98.455 102.593 103.535C101.505 111.609 95.3356 114.785 89.8017 110.067C87.5337 108.071 87.2615 107.255 86.9893 100.632C86.6265 92.649 88.078 88.2944 91.6161 86.8429C93.9748 85.8449 98.6015 86.48 100.144 88.0222Z" fill="#FEFEFE"/>
<path d="M146.32 82.4883C147.137 84.6656 150.131 93.284 153.124 101.721C156.118 110.249 158.658 117.325 158.84 117.506C159.384 117.96 156.662 126.034 155.483 127.395C155.029 128.03 153.669 128.574 152.489 128.574C150.584 128.574 150.312 128.937 150.312 132.294V136.104L154.213 135.56C160.382 134.743 161.652 132.384 170.724 105.259C175.26 91.9232 179.07 80.4017 179.161 79.7667C179.433 78.8595 178.435 78.678 175.623 78.8595L171.722 79.1316L167.004 93.6468C164.464 101.63 162.106 107.527 161.833 106.801C161.561 106.076 159.384 99.4529 157.025 92.0139L152.671 78.678H148.86H144.959L146.32 82.4883Z" fill="#FEFEFE"/>
<path d="M186.055 79.9482C181.791 81.8533 179.342 85.4821 179.342 90.1089C179.342 98.4551 182.336 101.086 193.131 102.538C198.756 103.263 200.48 103.808 201.206 105.259C202.566 107.709 200.933 111.156 197.94 111.882C194.039 112.88 186.963 111.791 184.15 109.704L181.429 107.799L178.979 110.339L176.439 112.97L179.523 115.238C183.606 118.232 187.779 119.502 193.494 119.502C204.834 119.502 211.003 112.88 208.463 103.445C207.012 98.0922 205.016 96.8222 196.307 95.5521C192.134 94.917 188.233 94.1006 187.688 93.7377C185.874 92.649 186.418 87.9316 188.323 86.8429C191.136 85.3914 196.76 85.7543 200.389 87.7501L203.746 89.4738L205.651 87.1151C208.1 84.0306 207.737 83.2141 202.929 80.674C198.303 78.406 190.501 78.0431 186.055 79.9482Z" fill="#FEFEFE"/>
<path d="M212.001 99.0902V119.502H215.63H219.259V99.0902V78.6781H215.63H212.001V99.0902Z" fill="#FEFEFE"/>
<path d="M231.506 79.9482C222.162 84.0306 218.261 99.3623 223.704 110.702C227.968 119.411 239.036 122.224 247.654 116.781C250.013 115.329 251.918 113.787 251.918 113.424C251.918 113.061 250.83 111.7 249.469 110.249L247.11 107.799L244.298 110.067C242.03 112.063 240.941 112.335 237.675 111.972C232.867 111.428 230.508 109.432 229.238 105.078C226.97 96.9128 229.601 88.6573 235.044 86.8429C238.673 85.6635 243.572 86.7522 245.659 89.2016C246.566 90.381 247.11 90.1995 249.287 88.113C252.463 85.0285 251.737 83.2141 246.203 80.5832C241.758 78.4059 235.589 78.1338 231.506 79.9482Z" fill="#FEFEFE"/>
<path d="M260.99 79.676C258.541 80.6739 255.547 83.1234 255.547 84.1213C255.547 84.3935 256.817 85.5728 258.36 86.7522C260.9 88.6573 261.263 88.6573 262.714 87.3872C264.801 85.4821 271.786 85.4821 274.417 87.3872C275.869 88.3852 276.413 89.6552 276.413 92.3768V95.9149H269.609C265.708 95.9149 261.444 96.4593 259.63 97.185C251.918 100.451 251.374 113.152 258.722 117.688C262.896 120.228 271.695 120.228 274.417 117.688L276.413 115.783V117.688C276.413 119.23 276.957 119.502 280.042 119.502H283.671V103.354C283.671 86.0264 283.308 84.3028 278.862 81.0368C275.959 78.8595 264.891 78.0431 260.99 79.676ZM276.413 105.803C276.413 110.793 274.689 112.245 268.52 112.245C262.805 112.245 260.083 110.612 260.083 107.164C260.083 103.808 263.349 102.265 270.244 102.265H276.413V105.803Z" fill="#FEFEFE"/>
<path d="M90.6724 137.605V129.44H91.5538V130.383H91.662C91.729 130.28 91.8218 130.149 91.9404 129.989C92.0615 129.827 92.2342 129.682 92.4584 129.556C92.6852 129.427 92.9919 129.363 93.3785 129.363C93.8785 129.363 94.3192 129.488 94.7006 129.738C95.0821 129.988 95.3798 130.342 95.5937 130.801C95.8076 131.26 95.9145 131.801 95.9145 132.425C95.9145 133.053 95.8076 133.598 95.5937 134.06C95.3798 134.519 95.0834 134.874 94.7045 135.127C94.3257 135.377 93.8888 135.502 93.394 135.502C93.0125 135.502 92.7071 135.439 92.4777 135.312C92.2484 135.184 92.0718 135.038 91.9481 134.876C91.8244 134.711 91.729 134.574 91.662 134.466H91.5847V137.605H90.6724ZM91.5693 132.409C91.5693 132.858 91.635 133.253 91.7664 133.596C91.8979 133.936 92.0899 134.203 92.3424 134.396C92.595 134.587 92.9043 134.682 93.2703 134.682C93.6517 134.682 93.97 134.582 94.2251 134.381C94.4829 134.177 94.6762 133.904 94.805 133.561C94.9365 133.216 95.0022 132.832 95.0022 132.409C95.0022 131.992 94.9378 131.615 94.8089 131.28C94.6826 130.943 94.4906 130.676 94.2329 130.48C93.9777 130.282 93.6569 130.182 93.2703 130.182C92.8991 130.182 92.5873 130.276 92.3347 130.465C92.0821 130.65 91.8914 130.91 91.7626 131.245C91.6337 131.578 91.5693 131.966 91.5693 132.409Z" fill="#FEFEFE"/>
<path d="M101.485 131.806V135.378H100.572V127.461H101.485V130.368H101.562C101.701 130.061 101.91 129.818 102.188 129.637C102.469 129.454 102.843 129.363 103.309 129.363C103.714 129.363 104.068 129.444 104.372 129.606C104.677 129.766 104.912 130.012 105.08 130.345C105.25 130.675 105.335 131.095 105.335 131.605V135.378H104.423V131.667C104.423 131.195 104.3 130.83 104.055 130.573C103.813 130.312 103.477 130.182 103.046 130.182C102.747 130.182 102.479 130.245 102.242 130.372C102.008 130.498 101.822 130.682 101.686 130.925C101.552 131.167 101.485 131.461 101.485 131.806Z" fill="#FEFEFE"/>
<path d="M112.017 135.517C111.641 135.517 111.3 135.446 110.993 135.305C110.686 135.16 110.443 134.953 110.262 134.682C110.082 134.409 109.992 134.079 109.992 133.693C109.992 133.352 110.059 133.077 110.193 132.865C110.327 132.651 110.506 132.484 110.73 132.363C110.954 132.242 111.202 132.151 111.472 132.092C111.746 132.03 112.02 131.981 112.296 131.945C112.657 131.899 112.949 131.864 113.173 131.841C113.4 131.815 113.565 131.772 113.668 131.713C113.774 131.654 113.827 131.551 113.827 131.404V131.373C113.827 130.992 113.722 130.695 113.514 130.484C113.307 130.273 112.994 130.167 112.574 130.167C112.139 130.167 111.797 130.262 111.55 130.453C111.302 130.644 111.128 130.847 111.028 131.064L110.162 130.754C110.316 130.394 110.523 130.113 110.78 129.912C111.041 129.708 111.324 129.566 111.631 129.486C111.94 129.404 112.244 129.363 112.543 129.363C112.734 129.363 112.953 129.386 113.2 129.432C113.45 129.476 113.691 129.568 113.923 129.707C114.158 129.846 114.352 130.056 114.507 130.337C114.662 130.618 114.739 130.994 114.739 131.466V135.378H113.827V134.574H113.78C113.718 134.703 113.615 134.841 113.471 134.988C113.327 135.135 113.135 135.26 112.895 135.363C112.655 135.466 112.363 135.517 112.017 135.517ZM112.157 134.698C112.517 134.698 112.822 134.627 113.069 134.485C113.319 134.343 113.507 134.16 113.633 133.936C113.762 133.712 113.827 133.476 113.827 133.229V132.394C113.788 132.44 113.703 132.483 113.572 132.521C113.443 132.557 113.293 132.589 113.123 132.618C112.956 132.644 112.792 132.667 112.632 132.687C112.475 132.705 112.347 132.721 112.249 132.734C112.012 132.765 111.791 132.815 111.584 132.885C111.381 132.952 111.216 133.053 111.09 133.19C110.966 133.324 110.904 133.507 110.904 133.739C110.904 134.056 111.021 134.296 111.256 134.458C111.493 134.618 111.793 134.698 112.157 134.698Z" fill="#FEFEFE"/>
<path d="M119.67 135.378V129.44H120.552V130.337H120.613C120.722 130.043 120.918 129.805 121.201 129.622C121.485 129.439 121.804 129.347 122.16 129.347C122.227 129.347 122.311 129.349 122.411 129.351C122.512 129.354 122.588 129.358 122.639 129.363V130.291C122.608 130.283 122.537 130.271 122.427 130.256C122.318 130.238 122.204 130.229 122.083 130.229C121.794 130.229 121.536 130.289 121.309 130.41C121.085 130.529 120.907 130.694 120.776 130.905C120.647 131.114 120.583 131.352 120.583 131.62V135.378H119.67Z" fill="#FEFEFE"/>
<path d="M126.987 135.378V129.44H127.868V130.368H127.945C128.069 130.051 128.269 129.805 128.545 129.629C128.82 129.452 129.152 129.363 129.538 129.363C129.93 129.363 130.256 129.452 130.516 129.629C130.779 129.805 130.984 130.051 131.131 130.368H131.193C131.345 130.061 131.573 129.818 131.877 129.637C132.181 129.454 132.546 129.363 132.971 129.363C133.502 129.363 133.936 129.529 134.274 129.861C134.612 130.191 134.78 130.705 134.78 131.404V135.378H133.868V131.404C133.868 130.966 133.748 130.653 133.508 130.465C133.269 130.276 132.987 130.182 132.662 130.182C132.244 130.182 131.921 130.309 131.691 130.561C131.462 130.811 131.347 131.128 131.347 131.512V135.378H130.42V131.311C130.42 130.974 130.31 130.702 130.091 130.495C129.872 130.287 129.59 130.182 129.244 130.182C129.007 130.182 128.786 130.245 128.579 130.372C128.376 130.498 128.211 130.673 128.085 130.897C127.961 131.119 127.899 131.376 127.899 131.667V135.378H126.987Z" fill="#FEFEFE"/>
<path d="M141.462 135.517C141.086 135.517 140.744 135.446 140.437 135.305C140.131 135.16 139.887 134.953 139.707 134.682C139.526 134.409 139.436 134.079 139.436 133.693C139.436 133.352 139.503 133.077 139.637 132.865C139.771 132.651 139.95 132.484 140.174 132.363C140.399 132.242 140.646 132.151 140.917 132.092C141.19 132.03 141.464 131.981 141.74 131.945C142.101 131.899 142.393 131.864 142.618 131.841C142.845 131.815 143.009 131.772 143.113 131.713C143.218 131.654 143.271 131.551 143.271 131.404V131.373C143.271 130.992 143.167 130.695 142.958 130.484C142.752 130.273 142.439 130.167 142.018 130.167C141.583 130.167 141.241 130.262 140.994 130.453C140.747 130.644 140.573 130.847 140.472 131.064L139.606 130.754C139.761 130.394 139.967 130.113 140.225 129.912C140.485 129.708 140.769 129.566 141.075 129.486C141.384 129.404 141.689 129.363 141.988 129.363C142.178 129.363 142.397 129.386 142.645 129.432C142.895 129.476 143.136 129.568 143.368 129.707C143.602 129.846 143.797 130.056 143.951 130.337C144.106 130.618 144.183 130.994 144.183 131.466V135.378H143.271V134.574H143.225C143.163 134.703 143.06 134.841 142.915 134.988C142.771 135.135 142.579 135.26 142.339 135.363C142.1 135.466 141.807 135.517 141.462 135.517ZM141.601 134.698C141.962 134.698 142.266 134.627 142.513 134.485C142.763 134.343 142.951 134.16 143.078 133.936C143.207 133.712 143.271 133.476 143.271 133.229V132.394C143.232 132.44 143.147 132.483 143.016 132.521C142.887 132.557 142.738 132.589 142.567 132.618C142.4 132.644 142.236 132.667 142.076 132.687C141.919 132.705 141.792 132.721 141.694 132.734C141.457 132.765 141.235 132.815 141.029 132.885C140.825 132.952 140.66 133.053 140.534 133.19C140.41 133.324 140.348 133.507 140.348 133.739C140.348 134.056 140.466 134.296 140.7 134.458C140.937 134.618 141.238 134.698 141.601 134.698Z" fill="#FEFEFE"/>
</svg>
