<svg width="320" height="200" viewBox="0 0 320 200" fill="none" xmlns="http://www.w3.org/2000/svg">
<g clip-path="url(#clip0_18_1728)">
<path opacity="0.996" fill-rule="evenodd" clip-rule="evenodd" d="M175.745 60C179.596 60 183.436 60.1094 187.286 60.3391C198.707 61.4768 206.813 67.231 211.605 77.6125C215.291 85.9921 215.324 94.3935 211.725 102.817C207.645 111.525 200.972 117.202 191.706 119.839C188.14 120.736 184.519 121.086 180.832 120.867C171.14 120.287 162.191 117.432 153.998 112.301C151.897 110.803 149.709 109.424 147.445 108.177C141.385 105.092 134.941 103.539 128.137 103.506C126.266 103.353 125.205 102.357 124.954 100.498C124.833 98.0254 124.833 95.5641 124.954 93.0918C125.183 91.2868 126.201 90.3022 128.017 90.1491C131.933 90.16 135.018 88.5957 137.271 85.4451C138.89 82.8962 139.186 80.2051 138.179 77.3718C137.009 74.7682 134.996 73.2914 132.141 72.9742C128.038 72.9632 123.947 72.9304 119.845 72.8866C119.549 72.9085 119.254 72.9632 118.97 73.0398C118.707 73.1711 118.532 73.3899 118.455 73.6743C118.401 74.1228 118.368 74.5604 118.368 75.0089C118.434 88.9567 118.445 102.904 118.401 116.841C118.39 117.935 117.974 118.832 117.154 119.543C116.497 119.926 115.786 120.123 115.031 120.156C112.745 120.2 110.459 120.2 108.172 120.156C106.422 119.992 105.405 119.051 105.109 117.334C105.077 111.35 105.055 105.377 105 99.4038C105.044 87.3157 105.077 75.2058 105.088 63.0959C105.263 61.5643 106.105 60.6235 107.604 60.2735C112.439 60.175 117.274 60.1203 122.12 60.1203C126.113 60.1094 130.095 60.1641 134.088 60.2735C139.82 61.0721 144.382 63.796 147.784 68.4452C150.727 72.635 151.963 77.2843 151.493 82.4149C151.471 84.5371 151.022 86.5609 150.158 88.4863C149.37 90.2475 148.528 91.9869 147.642 93.7044C149.863 94.6014 152.007 95.6406 154.074 96.833C156.918 98.5943 159.73 100.388 162.519 102.237C169.772 106.646 177.649 108.527 186.138 107.882C192.001 107.127 196.366 104.184 199.221 99.0428C203.148 91.79 202.481 85.0075 197.219 78.6955C194.113 75.173 190.196 73.2586 185.47 72.9523C181.292 72.9413 177.113 72.9085 172.934 72.8648C172.595 72.8757 172.256 72.9304 171.927 73.0179C171.577 73.2039 171.38 73.4992 171.348 73.8931C171.326 77.525 171.337 81.1568 171.38 84.7887C171.369 88.1581 171.337 91.5274 171.293 94.8968C171.205 96.0673 170.691 96.9862 169.739 97.6644C168.646 98.1786 167.563 98.1786 166.458 97.6644C165.167 96.9315 163.909 96.1439 162.695 95.3015C161.272 94.2951 159.828 93.2996 158.384 92.326C158.231 92.2057 158.111 92.0525 158.045 91.8665C157.947 82.5352 157.925 73.2039 157.98 63.8726C157.881 62.6802 158.253 61.6847 159.106 60.8642C159.631 60.5032 160.222 60.2735 160.868 60.1969C165.834 60.1422 170.79 60.0656 175.745 60Z" fill="#FEFEFE"/>
<path opacity="0.943" fill-rule="evenodd" clip-rule="evenodd" d="M122.372 126.009C123.477 126.03 123.871 126.577 123.553 127.649C123.28 128.098 122.886 128.251 122.372 128.109C121.705 127.934 121.431 127.496 121.552 126.807C121.661 126.348 121.934 126.085 122.372 126.009Z" fill="#FEFEFE"/>
<path opacity="0.944" fill-rule="evenodd" clip-rule="evenodd" d="M181.27 126.009C182.265 126.129 182.615 126.676 182.331 127.649C182.221 127.868 182.046 128.021 181.816 128.109C180.919 128.317 180.405 127.978 180.296 127.081C180.362 126.468 180.679 126.118 181.27 126.009Z" fill="#FEFEFE"/>
<path opacity="0.97" fill-rule="evenodd" clip-rule="evenodd" d="M185.274 126.008C185.624 125.987 185.941 126.052 186.247 126.216C186.4 126.38 186.488 126.577 186.521 126.796C186.565 129.87 186.565 132.944 186.521 136.029C186.455 136.598 186.127 136.904 185.547 136.937C184.924 136.937 184.563 136.631 184.453 136.029C184.409 132.988 184.409 129.958 184.453 126.916C184.508 126.402 184.781 126.107 185.274 126.008Z" fill="#FEFEFE"/>
<path opacity="0.979" fill-rule="evenodd" clip-rule="evenodd" d="M106.575 126.555C107.461 126.545 108.358 126.555 109.244 126.588C111.443 126.752 112.45 127.934 112.253 130.144C112.198 130.658 111.979 131.095 111.618 131.445C111.279 131.664 110.94 131.861 110.59 132.058C110.218 132.288 110.142 132.583 110.382 132.933C111.06 133.546 111.662 134.213 112.209 134.935C112.428 135.788 112.089 136.27 111.203 136.39C110.885 136.368 110.601 136.248 110.349 136.051C109.77 135.471 109.234 134.848 108.741 134.202C108.391 133.808 108.008 133.469 107.593 133.174C107.516 133.327 107.461 133.491 107.407 133.655C107.396 134.224 107.352 134.793 107.286 135.351C107.024 136.313 106.433 136.609 105.492 136.226C105.339 136.16 105.23 136.04 105.153 135.887C105.088 134.574 105.033 133.261 105 131.938C105.055 130.362 105.077 128.776 105.088 127.201C105.153 126.916 105.328 126.72 105.602 126.621C105.941 126.632 106.269 126.599 106.575 126.555ZM107.91 128.557C108.337 128.557 108.763 128.612 109.19 128.711C109.759 128.995 109.945 129.454 109.77 130.078C109.682 130.286 109.551 130.461 109.376 130.592C108.796 130.8 108.216 130.844 107.615 130.712C107.363 130.592 107.221 130.406 107.188 130.133C107.221 129.728 107.275 129.323 107.341 128.918C107.494 128.721 107.68 128.601 107.91 128.557Z" fill="#FEFEFE"/>
<path opacity="0.975" fill-rule="evenodd" clip-rule="evenodd" d="M135.904 126.555C137.238 126.512 138.518 126.763 139.733 127.31C141.067 128.098 141.866 129.268 142.128 130.8C142.456 135.285 140.378 137.331 135.871 136.937C135.433 136.926 134.996 136.871 134.569 136.784C134.318 136.696 134.143 136.521 134.055 136.27C134 136.051 133.957 135.832 133.935 135.602C133.891 133.677 133.891 131.752 133.935 129.837C133.946 128.951 134.164 128.12 134.602 127.343C134.941 126.916 135.379 126.654 135.904 126.555ZM137.238 128.798C138.485 128.907 139.328 129.553 139.754 130.745C140.028 131.883 139.875 132.955 139.273 133.961C138.464 134.826 137.501 135.055 136.385 134.662C136.144 134.421 136.046 134.125 136.079 133.786L136.112 129.356C136.177 129.203 136.298 129.093 136.451 129.017C136.713 128.918 136.987 128.842 137.238 128.798Z" fill="#FEFEFE"/>
<path opacity="0.973" fill-rule="evenodd" clip-rule="evenodd" d="M193.894 126.555C194.835 126.468 195.732 126.643 196.563 127.07C197.121 127.496 197.252 128.032 196.957 128.678C196.76 128.951 196.487 129.093 196.136 129.104C195.655 129.039 195.196 128.929 194.736 128.765C193.916 128.634 193.533 128.995 193.609 129.826C193.686 130.056 193.839 130.209 194.069 130.286C195.086 130.472 196.016 130.855 196.858 131.434C197.898 132.441 198.16 133.622 197.613 134.99C197.209 135.898 196.541 136.467 195.579 136.718C194.321 137.046 193.084 136.981 191.87 136.532C191.148 136.149 190.929 135.57 191.236 134.804C191.443 134.498 191.739 134.333 192.111 134.322C192.844 134.476 193.577 134.629 194.299 134.804C195.207 134.662 195.513 134.147 195.239 133.283L195.032 133.075C194.069 132.714 193.117 132.332 192.176 131.927C191.64 131.544 191.301 131.03 191.17 130.373C190.918 128.732 191.531 127.54 193.019 126.818C193.336 126.731 193.62 126.632 193.894 126.555Z" fill="#FEFEFE"/>
<path opacity="0.974" fill-rule="evenodd" clip-rule="evenodd" d="M206.463 126.556C207.448 126.37 208.126 126.741 208.498 127.649C209.428 130.089 210.336 132.539 211.233 135.001C211.441 135.624 211.255 136.062 210.653 136.303C209.931 136.532 209.439 136.303 209.165 135.602C209.121 135.296 209.023 135.012 208.859 134.749C208.717 134.629 208.574 134.541 208.399 134.476C207.688 134.454 206.977 134.432 206.277 134.388C205.697 134.366 205.227 134.563 204.855 135.001C204.68 135.351 204.538 135.712 204.428 136.095C203.892 136.488 203.334 136.499 202.755 136.128C202.558 135.942 202.448 135.712 202.448 135.427C203.4 132.758 204.396 130.111 205.457 127.474C205.697 127.037 206.026 126.731 206.463 126.556ZM206.955 129.345C207.032 129.345 207.087 129.389 207.109 129.465C207.393 130.264 207.645 131.073 207.863 131.894C207.874 132.036 207.831 132.156 207.743 132.255C207.185 132.55 206.616 132.561 206.047 132.288C205.938 132.211 205.872 132.113 205.861 131.981C206.135 131.314 206.365 130.636 206.562 129.947C206.671 129.739 206.802 129.531 206.955 129.345ZM115.622 129.104C116.3 129.072 116.957 129.203 117.569 129.498C118.116 129.575 118.663 129.684 119.21 129.805C119.67 129.958 119.921 130.275 119.965 130.745C120.053 132.277 120.075 133.819 120.031 135.362C120.02 135.679 119.965 135.996 119.878 136.303C119.648 136.795 119.265 136.959 118.729 136.784C118.445 136.685 118.16 136.598 117.876 136.51C116.826 136.97 115.743 137.025 114.659 136.664C113.555 135.996 112.942 135.023 112.811 133.721C112.603 132.189 113.03 130.888 114.113 129.805C114.561 129.433 115.064 129.203 115.622 129.104ZM116.114 131.161C116.99 131.095 117.526 131.478 117.723 132.31C117.887 133.032 117.81 133.721 117.482 134.377C117.077 134.804 116.585 134.957 115.994 134.837C115.567 134.716 115.272 134.443 115.119 134.016C114.769 133.075 114.9 132.222 115.513 131.434C115.71 131.325 115.907 131.238 116.114 131.161Z" fill="#FEFEFE"/>
<path opacity="0.965" fill-rule="evenodd" clip-rule="evenodd" d="M122.427 129.104C122.81 129.061 123.116 129.181 123.368 129.465C123.51 129.75 123.586 130.056 123.608 130.373C123.663 132.321 123.641 134.257 123.543 136.204C123.389 136.674 123.072 136.915 122.569 136.937C122.066 136.926 121.748 136.685 121.595 136.204C121.508 134.18 121.486 132.156 121.53 130.133C121.595 129.575 121.891 129.225 122.427 129.104Z" fill="#FEFEFE"/>
<path opacity="0.975" fill-rule="evenodd" clip-rule="evenodd" d="M128.016 129.104C128.76 129.061 129.46 129.225 130.117 129.586C130.718 129.323 131.331 129.257 131.965 129.378C132.075 129.422 132.162 129.498 132.239 129.586C132.348 129.848 132.425 130.122 132.447 130.406C132.381 130.844 132.337 131.292 132.326 131.741C132.392 133.086 132.403 134.432 132.359 135.777C132.392 136.401 132.108 136.762 131.506 136.871C131.079 136.795 130.675 136.674 130.292 136.51C129.296 136.948 128.268 137.014 127.229 136.718C126.036 136.127 125.358 135.165 125.194 133.83C124.942 132.255 125.38 130.909 126.496 129.794C126.955 129.443 127.458 129.214 128.016 129.104ZM128.377 131.227C129.362 131.073 129.964 131.478 130.171 132.441C130.303 133.043 130.248 133.633 129.985 134.202C129.438 134.891 128.76 135.044 127.951 134.662C127.633 134.454 127.447 134.158 127.371 133.786C127.305 133.196 127.349 132.605 127.491 132.025C127.688 131.631 127.984 131.369 128.377 131.227Z" fill="#FEFEFE"/>
<path opacity="0.976" fill-rule="evenodd" clip-rule="evenodd" d="M146.832 129.104C147.828 129.061 148.342 129.52 148.386 130.505C148.353 130.691 148.254 130.844 148.112 130.964C147.565 131.128 147.062 131.369 146.592 131.697C146.056 132.375 145.815 133.152 145.859 134.038C145.957 134.76 145.99 135.493 145.946 136.226C145.749 136.729 145.377 136.981 144.819 136.959C144.032 136.948 143.649 136.554 143.671 135.777C143.682 133.786 143.726 131.784 143.824 129.793C143.977 129.367 144.272 129.181 144.699 129.214C144.918 129.334 145.148 129.4 145.399 129.422C145.902 129.334 146.373 129.236 146.832 129.104Z" fill="#FEFEFE"/>
<path opacity="0.974" fill-rule="evenodd" clip-rule="evenodd" d="M151.569 129.104C153.604 129.05 154.917 130.001 155.486 131.959C155.792 133.294 155.573 134.53 154.818 135.668C153.735 136.795 152.434 137.167 150.902 136.795C149.436 136.357 148.594 135.373 148.386 133.852C148.134 132.156 148.67 130.767 149.994 129.695C150.497 129.389 151.022 129.203 151.569 129.104ZM151.755 131.161C152.805 131.15 153.363 131.675 153.429 132.736C153.484 133.261 153.407 133.775 153.188 134.257C152.784 134.782 152.248 134.968 151.58 134.837C151.154 134.716 150.858 134.443 150.705 134.016C150.355 133.196 150.443 132.397 150.946 131.653C151.154 131.391 151.427 131.227 151.755 131.161ZM168.208 129.104C168.974 129.093 169.718 129.236 170.429 129.531C170.943 129.29 171.479 129.203 172.037 129.257C172.168 129.323 172.278 129.422 172.376 129.531C172.475 129.761 172.54 130.012 172.562 130.264C172.65 131.511 172.682 132.758 172.65 133.994C172.65 134.738 172.595 135.471 172.496 136.215C172.387 136.773 172.048 136.981 171.49 136.849C171.129 136.729 170.79 136.576 170.462 136.39C169.28 137.09 168.088 137.101 166.885 136.423C165.845 135.591 165.331 134.497 165.364 133.141C165.342 131.806 165.812 130.669 166.764 129.739C167.191 129.411 167.683 129.192 168.208 129.104ZM168.7 131.161C169.587 131.084 170.123 131.467 170.309 132.31C170.44 132.933 170.407 133.535 170.188 134.136C169.871 134.738 169.379 134.968 168.7 134.837C167.957 134.662 167.563 134.18 167.519 133.414C167.464 132.824 167.574 132.255 167.825 131.719C168.044 131.412 168.339 131.227 168.7 131.161Z" fill="#FEFEFE"/>
<path opacity="0.969" fill-rule="evenodd" clip-rule="evenodd" d="M176.413 129.104C177.506 128.984 178.393 129.345 179.049 130.198C179.257 130.789 179.082 131.227 178.535 131.5C178.349 131.544 178.174 131.544 177.988 131.5C177.583 131.369 177.167 131.248 176.741 131.161C176.139 131.248 176.041 131.5 176.467 131.916C177.178 132.189 177.867 132.517 178.535 132.889C179.366 133.622 179.552 134.497 179.115 135.526C178.852 136.106 178.414 136.499 177.813 136.707C176.566 137.035 175.373 136.893 174.236 136.281C173.59 135.876 173.459 135.34 173.842 134.672C173.94 134.574 174.05 134.508 174.181 134.465C174.487 134.421 174.794 134.421 175.089 134.465C175.559 134.662 176.041 134.858 176.511 135.044C176.763 135.012 176.927 134.869 176.992 134.618C177.047 134.421 177.025 134.257 176.905 134.104C176.478 133.896 176.03 133.732 175.57 133.622C174.925 133.36 174.411 132.944 174.017 132.375C173.667 131.391 173.831 130.516 174.531 129.739C175.1 129.367 175.734 129.159 176.413 129.104Z" fill="#FEFEFE"/>
<path opacity="0.965" fill-rule="evenodd" clip-rule="evenodd" d="M181.149 129.104C181.817 129.039 182.232 129.323 182.396 129.958C182.44 131.981 182.44 134.005 182.396 136.029C182.32 136.631 181.981 136.937 181.368 136.937C180.756 136.926 180.416 136.631 180.34 136.029C180.285 133.94 180.307 131.861 180.405 129.772C180.504 129.389 180.756 129.159 181.149 129.104Z" fill="#FEFEFE"/>
<path opacity="0.977" fill-rule="evenodd" clip-rule="evenodd" d="M159.588 129.159C159.85 129.148 160.113 129.159 160.375 129.192C160.933 129.312 161.502 129.4 162.071 129.465C162.53 129.378 163.001 129.334 163.471 129.312C163.745 129.498 163.909 129.75 163.985 130.067C164.029 132.31 164.029 134.563 163.985 136.806C163.854 138.37 163.034 139.376 161.524 139.814C159.971 140.219 158.538 139.945 157.247 138.994C156.973 138.381 157.104 137.889 157.64 137.506C157.859 137.462 158.089 137.462 158.308 137.506C158.756 137.725 159.216 137.878 159.708 137.987C160.189 138.053 160.638 137.954 161.043 137.681C161.294 137.484 161.513 137.265 161.71 137.014C161.207 137.057 160.704 137.09 160.189 137.101C158.942 137.167 158.023 136.663 157.422 135.58C156.568 133.786 156.678 132.047 157.728 130.362C158.22 129.761 158.844 129.356 159.588 129.159ZM160.255 131.227C160.988 131.183 161.458 131.5 161.677 132.2C162.027 133.043 161.951 133.852 161.436 134.629C160.802 135.165 160.157 135.187 159.489 134.694C158.855 133.732 158.822 132.736 159.369 131.719C159.631 131.456 159.916 131.303 160.255 131.227Z" fill="#FEFEFE"/>
<path opacity="0.943" fill-rule="evenodd" clip-rule="evenodd" d="M199.604 134.268C200.632 134.235 201.07 134.716 200.906 135.723C200.643 136.313 200.184 136.532 199.538 136.357C199.046 136.204 198.827 135.865 198.871 135.351C198.86 134.815 199.101 134.443 199.604 134.268Z" fill="#FEFEFE"/>
<path opacity="0.954" fill-rule="evenodd" clip-rule="evenodd" d="M213.082 134.268C214.143 134.235 214.558 134.738 214.329 135.788C214.263 136.007 214.132 136.182 213.935 136.302C212.633 136.598 212.119 136.106 212.381 134.815C212.546 134.53 212.786 134.344 213.082 134.268Z" fill="#FEFEFE"/>
</g>
<defs>
<clipPath id="clip0_18_1728">
<rect width="109.394" height="80" fill="white" transform="translate(105 60)"/>
</clipPath>
</defs>
</svg>
