<svg width="320" height="200" viewBox="0 0 320 200" fill="none" xmlns="http://www.w3.org/2000/svg">
<path d="M68.3486 60.7016C66.8047 61.649 65.8223 63.3683 65.8223 65.1929C65.8223 67.1929 66.2082 67.8946 68.4889 70.035C70.8398 72.2455 70.91 73.0174 68.9802 75.263C67.1205 77.4034 67.0503 78.842 68.7696 80.5613C69.6819 81.4736 70.2433 81.7543 71.2609 81.7543C72.2784 81.7543 72.8398 81.4736 73.7521 80.5613C75.4714 78.842 75.4012 77.4034 73.5416 75.263C71.6117 73.0174 71.6819 72.2455 74.0328 70.035C76.3135 67.8946 76.6995 67.1929 76.6995 65.1929C76.6995 62.1753 74.4188 59.9999 71.2609 59.9999C70.1381 59.9999 69.0854 60.2455 68.3486 60.7016Z" fill="#FEFEFE"/>
<path d="M52.9101 68.421C51.2961 69.4385 50.3838 71.0876 50.3838 73.1227C50.3838 79.9648 60.3838 80.421 61.1557 73.614C61.4013 71.614 60.3487 69.4736 58.6996 68.4561C57.1206 67.4736 54.4891 67.4736 52.9101 68.421Z" fill="#FEFEFE"/>
<path d="M83.717 68.4914C79.4012 71.4387 81.1907 78.0352 86.4187 78.4914C91.9626 78.9475 94.3837 71.3335 89.6117 68.4212C87.9626 67.4387 85.2258 67.4738 83.717 68.4914Z" fill="#FEFEFE"/>
<path d="M38.4539 77.9648C36.5943 79.2631 35.8574 80.4911 35.8574 82.3859C35.8574 86.7718 39.8223 89.1929 43.9276 87.4034C44.9101 86.9473 45.9627 86.7017 46.4188 86.842C47.4364 87.0876 48.6294 88.3859 48.6294 89.228C48.6294 90.2104 49.682 91.8245 50.6294 92.2455C54.3486 93.9297 57.682 89.6139 54.9802 86.5964C53.9276 85.4034 52.6995 85.1929 49.9627 85.7894C48.1381 86.1754 47.0855 85.0525 46.7697 82.4561C46.5241 80.3157 45.8223 79.1578 44.0679 77.9648C42.489 76.9122 40.0329 76.9122 38.4539 77.9648Z" fill="#FEFEFE"/>
<path d="M98.4539 77.9649C96.7346 79.1579 95.9978 80.3158 95.7521 82.386C95.4714 84.9825 94.7346 85.7895 92.8048 85.6842C88.6293 85.4035 88.5942 85.4035 87.5416 86.5965C85.296 89.0877 87.0153 92.6316 90.4188 92.6316C91.717 92.6316 93.8925 90.6667 93.8925 89.4737C93.8925 88.3158 94.4539 87.5088 95.6469 87.0176C96.5592 86.6316 96.9451 86.6667 98.5241 87.3684C102.77 89.193 106.7 86.7719 106.629 82.3509C106.594 79.4386 104.243 77.193 101.261 77.193C100.138 77.193 99.2609 77.4386 98.4539 77.9649Z" fill="#FEFEFE"/>
<path d="M60.9102 80.7369C59.5417 81.2983 58.84 82.1053 58.5944 83.4036C58.1733 85.6843 59.4716 87.3685 61.9979 87.8597C63.7523 88.1755 64.9102 89.5088 64.8751 91.1579C64.8049 93.1228 65.2961 93.7544 66.8049 93.6141C67.8575 93.5439 68.1382 93.3334 68.454 92.4913C68.7698 91.6141 68.6645 91.4035 67.7523 90.7018C64.8049 88.386 64.9453 88.772 65.6821 84.4562C65.9628 82.8071 65.1909 81.5439 63.5417 80.8421C62.1733 80.2807 62.1031 80.2807 60.9102 80.7369Z" fill="#FEFEFE"/>
<path d="M78.9101 80.8421C77.4013 81.5439 76.5592 82.8772 76.8048 84.2807C76.9101 84.9123 77.0855 86.1053 77.2259 86.9123C77.5066 88.4562 77.4013 88.6316 74.7697 90.7018C73.8574 91.4035 73.7522 91.6141 74.068 92.4913C74.3838 93.3334 74.6645 93.5439 75.7171 93.6141C77.2259 93.7544 77.7171 93.1228 77.6469 91.1579C77.6118 89.4737 78.6995 88.2807 80.7697 87.7544C81.6118 87.5439 82.6294 87.0527 83.0153 86.6667C85.7522 83.9299 82.489 79.2632 78.9101 80.8421Z" fill="#FEFEFE"/>
<path d="M134.103 84.4209C128.103 85.8595 123.787 90.2806 122.665 96.0701C120.945 104.772 125.647 112.351 134.068 114.561C136.7 115.228 142.279 115.228 144.875 114.561C148.84 113.544 153.893 110.21 153.893 108.667C153.893 108.351 153.401 107.544 152.805 106.842C151.436 105.298 150.279 105.228 148.559 106.667C144.98 109.614 138.875 110.491 134.524 108.667C132.735 107.93 130.384 105.684 129.647 104.035C128.349 101.193 127.401 101.403 141.647 101.403H154.314L154.173 97.6139C154.068 94.4209 153.893 93.5437 153.051 91.6841C151.928 89.263 149.647 86.842 147.226 85.6139C143.998 83.9648 138.208 83.4385 134.103 84.4209ZM142.559 89.9999C145.401 90.842 146.98 92.5613 147.717 95.5086L147.928 96.4911H138.454H128.945L129.191 95.6841C130.7 90.8069 136.665 88.2455 142.559 89.9999Z" fill="#FEFEFE"/>
<path d="M176.805 84.5263C174.945 85.1579 173.086 86.386 171.647 87.9649L170.805 88.8772L169.893 87.0527L168.98 85.2632H167.086C163.893 85.2632 164.068 84.4562 164.068 99.6842C164.068 108.211 164.208 113.263 164.419 113.719C164.735 114.281 165.191 114.386 167.331 114.386C168.875 114.386 170.068 114.211 170.314 113.965C170.63 113.649 170.735 111.123 170.735 104.842C170.735 94.807 170.77 94.6316 173.823 91.8597C175.647 90.2456 177.507 89.4737 179.647 89.4737C181.612 89.4737 183.366 91.2632 183.612 93.5088C183.893 96.0351 184.419 96.4912 187.051 96.4912C190.103 96.4912 190.559 95.9298 190.208 92.7369C189.928 89.6842 188.735 87.0527 187.121 85.8246C184.559 83.8597 180.244 83.3334 176.805 84.5263Z" fill="#FEFEFE"/>
<path d="M69.8225 86.1404C68.7699 87.7194 70.2786 89.6141 71.9628 88.8422C73.0856 88.3159 73.3663 87.1931 72.6997 86.1404C71.9277 84.9825 70.5944 84.9825 69.8225 86.1404Z" fill="#FEFEFE"/>
<path d="M194.945 85.6842C194.945 85.9298 198.068 92.4912 201.858 100.246L208.805 114.351L210.84 114.386H212.875L219.893 100.14C223.717 92.3158 226.805 85.7544 226.665 85.579C226.349 85.0527 220.7 85.193 220.244 85.7544C219.717 86.386 211.823 102.316 211.296 103.825L210.875 105.018L210.103 102.947C209.647 101.825 207.542 97.4035 205.366 93.1579L201.437 85.4386L198.208 85.3334C195.717 85.2632 194.945 85.3334 194.945 85.6842Z" fill="#FEFEFE"/>
<path d="M234.77 85.7193C234.665 85.9299 234.629 92.4562 234.665 100.175L234.77 114.211H237.752H240.735L240.84 100.211C240.875 90.1755 240.805 86.0702 240.524 85.7544C239.998 85.0878 235.015 85.0527 234.77 85.7193Z" fill="#FEFEFE"/>
<path d="M251.121 85.7194C250.84 86.1054 250.735 89.965 250.805 100.211L250.91 114.211L253.998 114.316L257.05 114.421V110.597C257.05 108.07 257.191 106.632 257.506 106.281C257.717 105.965 259.085 104.737 260.489 103.509L263.05 101.263L269.612 107.825L276.173 114.386H280.138C283.085 114.386 284.068 114.281 284.068 113.93C284.068 113.684 283.121 112.561 281.928 111.404C280.77 110.246 277.156 106.526 273.892 103.123L267.963 96.9825L274.103 91.6492C277.471 88.7018 280.208 86.0703 280.208 85.7896C280.208 85.3685 279.542 85.2633 276.454 85.2633H272.664L264.945 92.0352L257.226 98.8422L257.05 92.1404L256.875 85.4387L254.208 85.3334C252.243 85.2633 251.436 85.3685 251.121 85.7194Z" fill="#FEFEFE"/>
<path d="M59.0507 92.2104C57.9279 93.4385 58.6647 95.4385 60.2086 95.4385C61.7875 95.4385 62.5244 93.263 61.3314 92.1753C60.4893 91.4034 59.7525 91.4385 59.0507 92.2104Z" fill="#FEFEFE"/>
<path d="M81.1557 92.2104C80.0329 93.4385 80.7697 95.4385 82.3136 95.4385C83.9627 95.4385 84.6645 93.0876 83.296 92.1402C82.2785 91.4034 81.8574 91.4385 81.1557 92.2104Z" fill="#FEFEFE"/>
<path d="M37.8575 95.0525C35.6821 96.0701 34.8751 97.5438 35.0154 100.246C35.1207 101.965 35.3312 102.631 35.9979 103.368C37.2961 104.702 38.5593 105.263 40.454 105.263C42.7698 105.263 44.4891 104.07 45.2961 101.93C47.1207 97.1578 42.4891 92.8771 37.8575 95.0525Z" fill="#FEFEFE"/>
<path d="M100.033 94.8772C98.0681 95.7544 96.6997 97.8597 96.6997 99.9299C96.7348 101.509 97.9278 103.684 99.226 104.491C100.84 105.509 103.472 105.509 105.051 104.561C108.63 102.351 108.419 96.772 104.63 95.0527C102.945 94.2807 101.507 94.2456 100.033 94.8772Z" fill="#FEFEFE"/>
<path d="M51.7872 96.5263C50.4188 97.0877 49.717 97.8948 49.4714 99.193C49.0153 101.614 50.6995 103.509 53.331 103.509C54.2784 103.509 54.8398 103.228 55.7521 102.316C57.5065 100.456 58.5942 100.175 60.3486 101.053C62.2082 101.93 62.7345 101.93 63.5416 101.053C64.0679 100.491 64.1381 100.14 63.8574 99.3684C63.4714 98.2105 61.717 97.8948 60.4889 98.7369C59.2258 99.6491 57.8924 99.4386 56.4538 98.1053C54.2433 96.1404 53.4363 95.8597 51.7872 96.5263Z" fill="#FEFEFE"/>
<path d="M88.2787 96.3861C87.998 96.4913 87.0857 97.1931 86.2787 97.9299C84.6296 99.4387 83.3664 99.6843 82.0331 98.7369C80.805 97.8948 79.0506 98.2106 78.6647 99.3685C78.384 100.14 78.4541 100.491 78.9805 101.053C79.7875 101.93 80.3138 101.93 82.1734 101.053C83.9278 100.176 85.0155 100.456 86.7699 102.316C88.1033 103.649 89.6822 103.895 91.4015 102.983C93.4717 101.93 93.6822 98.5264 91.7875 97.158C90.805 96.4212 89.0857 96.0703 88.2787 96.3861Z" fill="#FEFEFE"/>
<path d="M58.8752 104.982C58.3489 105.509 58.3489 107.123 58.8752 107.649C59.1208 107.895 59.7173 108.07 60.2085 108.07C60.6998 108.07 61.2963 107.895 61.5419 107.649C61.7875 107.403 61.9629 106.807 61.9629 106.316C61.9629 105.158 61.3664 104.561 60.2085 104.561C59.7173 104.561 59.1208 104.737 58.8752 104.982Z" fill="#FEFEFE"/>
<path d="M80.9801 104.982C80.7345 105.228 80.5591 105.824 80.5591 106.316C80.5591 107.474 81.1556 108.07 82.3135 108.07C83.4714 108.07 84.0679 107.474 84.0679 106.316C84.0679 105.824 83.8924 105.228 83.6468 104.982C83.4012 104.737 82.8047 104.561 82.3135 104.561C81.8222 104.561 81.2257 104.737 80.9801 104.982Z" fill="#FEFEFE"/>
<path d="M65.296 106.667C64.91 107.088 64.7697 107.649 64.875 108.105C64.9802 108.526 64.875 109.403 64.5943 110.07C64.103 111.228 63.4013 111.684 61.4715 112.105C60.91 112.21 60.0329 112.772 59.4715 113.333C57.2609 115.544 58.9451 119.298 62.1381 119.298C64.4188 119.298 66.1381 117.263 65.682 115.088C65.5767 114.526 65.3662 113.544 65.2609 112.982C64.9802 111.684 65.7522 110.421 67.2258 109.649C68.5592 108.982 68.9451 107.579 68.103 106.667C67.296 105.789 66.103 105.789 65.296 106.667Z" fill="#FEFEFE"/>
<path d="M74.4188 106.667C73.5766 107.579 73.9626 108.983 75.2959 109.649C75.8573 109.93 76.5942 110.597 76.91 111.053C77.4714 111.895 77.4363 112.386 76.8398 114.807C76.0679 118 79.2959 120.351 82.2784 118.772C85.1556 117.298 84.2433 112.772 80.9451 112.07C79.1205 111.684 78.4188 111.193 77.9275 110.07C77.6468 109.404 77.5416 108.526 77.6468 108.105C77.8924 107.158 76.8749 105.965 75.8223 105.965C75.4012 105.965 74.7696 106.281 74.4188 106.667Z" fill="#FEFEFE"/>
<path d="M49.9279 108.07C49.4015 108.491 48.9103 109.333 48.77 110.035C48.4191 111.93 47.4015 112.982 45.8928 112.982C45.191 112.982 44.2787 112.737 43.9279 112.456C42.9454 111.719 39.7173 111.789 38.384 112.526C35.998 113.965 35.1208 117.509 36.5594 120.035C37.2963 121.333 39.7875 122.807 41.2612 122.807C42.6647 122.807 45.2261 121.333 45.8928 120.14C46.2436 119.544 46.6296 118.281 46.7349 117.333C46.8752 116.351 47.2612 115.263 47.7173 114.807C48.384 114.07 48.5945 114 51.1208 114.246C53.7173 114.456 53.8928 114.421 54.7349 113.579C56.3489 111.965 56.3489 109.789 54.77 108.211C53.6472 107.123 51.2612 107.053 49.9279 108.07Z" fill="#FEFEFE"/>
<path d="M87.5418 108.386C86.3839 109.579 86.2085 111.018 87.0506 112.632C87.8576 114.175 88.7348 114.491 91.5418 114.211C93.7523 114 94.033 114.07 94.805 114.772C95.4015 115.333 95.6471 115.93 95.6471 116.842C95.6471 118.912 96.9804 121.123 98.805 122C99.6471 122.456 100.77 122.807 101.261 122.807C102.735 122.807 105.226 121.333 105.963 120.035C107.366 117.579 106.524 114.07 104.208 112.596C102.875 111.789 99.7523 111.719 98.4541 112.456C97.1909 113.158 95.5067 113.123 94.805 112.316C94.4892 111.965 94.033 111.088 93.8576 110.351C93.2962 108.316 92.1383 107.368 90.2085 107.368C88.8752 107.368 88.3839 107.544 87.5418 108.386Z" fill="#FEFEFE"/>
<path d="M69.8574 111.579C69.3311 112.14 69.2609 112.491 69.5416 113.263C69.8223 114.07 70.0679 114.211 71.2609 114.211C72.4539 114.211 72.6995 114.07 72.9802 113.263C73.6469 111.368 71.2258 110.07 69.8574 111.579Z" fill="#FEFEFE"/>
<path d="M69.2258 118.632C68.3837 119.123 67.5767 120.807 67.5767 122.07C67.5767 122.772 68.0328 123.614 68.9802 124.737C70.9802 127.053 70.8749 128.175 68.4538 129.825C66.5591 131.123 65.6819 132.912 65.8924 135.088C66.1731 138 68.3486 140 71.2609 140C74.1731 140 76.3486 138 76.6293 135.088C76.8398 132.912 75.9626 131.123 74.0679 129.825C71.717 128.211 71.5416 126.982 73.4012 124.947C74.103 124.14 74.6995 123.053 74.8398 122.351C75.0503 120.982 74.2784 119.158 73.2258 118.596C72.3486 118.14 70.0328 118.14 69.2258 118.632Z" fill="#FEFEFE"/>
<path d="M52.91 122.105C49.1205 124.421 49.6117 130.211 53.717 131.754C57.2258 133.123 60.7346 131.018 61.1556 127.298C61.3661 125.333 60.3135 123.088 58.6995 122.105C57.1907 121.158 54.4539 121.193 52.91 122.105Z" fill="#FEFEFE"/>
<path d="M83.7171 122.175C79.5066 125.053 81.1557 131.649 86.2084 132.175C88.2434 132.386 90.5943 131.193 91.5066 129.474C92.875 126.877 91.9978 123.579 89.6119 122.105C87.9627 121.123 85.2259 121.158 83.7171 122.175Z" fill="#FEFEFE"/>
</svg>
