<svg width="70" height="40" viewBox="0 0 70 40" fill="none" xmlns="http://www.w3.org/2000/svg">
<path d="M38.4687 15.6627H33.3368V0.0332031H0V8.82428H23.7404V15.6627H4.94001V24.4288H23.7404V31.2088H0V39.9998H33.3368V24.4288H38.4687V15.6627Z" fill="black"/>
<path d="M42.8038 4.18482C42.8038 1.42275 45.2488 0 48.9079 0C50.6686 0 55.2999 0.20861 55.2999 5.05267H52.4085C52.4085 3.70918 50.8313 3.02908 48.9371 3.02908C47.1472 3.02908 46.0958 3.57984 46.0958 4.10972C46.0958 4.73974 47.41 5.05682 49.1457 5.37392C53.2763 6.08321 55.4334 7.26816 55.4334 9.81745C55.4334 12.5545 52.8299 13.9481 49.25 13.9481C47.0679 13.9481 42.6744 14.0023 42.6744 8.89536H45.5659C45.5659 10.5017 47.1973 10.9189 49.1708 10.9189C51.04 10.9189 52.1456 10.3932 52.1456 9.86751C52.1456 9.28756 50.7228 8.99969 48.9872 8.68259C44.8816 7.9733 42.8038 6.73411 42.8038 4.18482Z" fill="black"/>
<path d="M57.5362 0.396484H63.874C67.821 0.396484 69.661 2.13219 69.661 5.18632C69.661 8.24046 67.821 10.0012 63.874 10.0012H60.6905V13.5518H57.5321V0.400661L57.5362 0.396484ZM63.7697 7.10558C65.7682 7.10558 66.3732 6.42133 66.3732 5.18632C66.3732 3.95132 65.7682 3.29207 63.7697 3.29207H60.6905V7.10558H63.7697Z" fill="black"/>
</svg>
