<svg width="273" height="38" viewBox="0 0 273 38" fill="none" xmlns="http://www.w3.org/2000/svg">
<path d="M83.8752 20.7592H77.7497C77.7497 18.1561 75.0762 16.8843 71.7928 16.8843C67.4453 16.8843 64.5514 19.5884 64.5514 24.4855V37.2393H57.8677V11.7317H64.5514V13.6216C64.5514 15.1549 64.1621 17.1399 63.7143 18.6197H64.2723C64.6616 17.1399 64.9406 15.2024 65.8296 14.0316C67.4453 11.8921 69.3921 10.9709 73.0713 10.9709C75.4138 10.9709 83.8752 11.381 83.8752 20.7651V20.7592Z" fill="#F8FFFF"/>
<path d="M84.6929 24.4855C84.6929 16.0701 91.0973 10.965 99.8962 10.965C104.127 10.965 113.932 11.375 113.932 20.7592H107.806C107.806 18.1561 104.464 16.8308 99.8962 16.8308C94.491 16.8308 91.7071 19.5349 91.7071 24.432C91.7071 29.9412 94.4909 32.1342 100.506 32.1342C105.074 32.1342 108.416 30.8089 108.416 28.2058H114.542C114.542 37.5899 104.737 38 100.506 38C91.0972 38 84.6863 33.513 84.6863 24.4795L84.6929 24.4855Z" fill="#F8FFFF"/>
<path d="M149.679 0C152.074 0 154.137 1.78292 154.137 4.08289C154.137 6.38286 152.08 8.16578 149.679 8.16578C147.278 8.16578 145.221 6.27588 145.221 4.08289C145.221 1.88989 147.168 0 149.679 0ZM146.337 11.7316H153.021V37.2393H146.337V11.7316Z" fill="#F8FFFF"/>
<path d="M182.974 20.7592H176.848C176.848 18.1561 174.175 16.8843 170.891 16.8843C166.55 16.8843 163.65 19.5884 163.65 24.4855V37.2393H156.966V11.7317H163.65V13.6216C163.65 15.1549 163.26 17.1399 162.813 18.6197H163.371C163.76 17.1399 164.039 15.2024 164.928 14.0316C166.544 11.8921 168.49 10.9709 172.17 10.9709C174.506 10.9709 182.974 11.381 182.974 20.7651V20.7592Z" fill="#F8FFFF"/>
<path d="M188.359 0C190.754 0 192.817 1.78292 192.817 4.08289C192.817 6.38286 190.76 8.16578 188.359 8.16578C185.958 8.16578 183.901 6.27588 183.901 4.08289C183.901 1.88989 185.848 0 188.359 0ZM185.018 11.7316H191.701V37.2393H185.018V11.7316Z" fill="#F8FFFF"/>
<path d="M195.471 11.7316H219.98V17.3418L204.828 31.623H219.98V37.2333H195.471V31.623L210.623 17.3418H195.471V11.7316Z" fill="#F8FFFF"/>
<path d="M241.361 11.7316L253.054 37.2392H245.592L237.63 19.8973L229.668 37.2392H222.206L233.899 11.7316H241.361Z" fill="#F8FFFF"/>
<path d="M142.723 17.3418V11.7316H119.499V21.704H115.917V27.2965H119.499V37.2333H142.723V31.623H126.183V27.2965H139.277V21.704H126.183V17.3418H142.723Z" fill="#F8FFFF"/>
<path d="M54.9347 21.704H51.3595V11.7316H28.1357V17.3418H44.6758V21.704H31.5747V27.2965H44.6758V31.623H28.1357V37.2333H51.3595V27.2965H54.9347V21.704Z" fill="#FF3402"/>
<path d="M8.90924 17.3418H0V11.7316H24.5086V17.3418H15.5993V37.2333H8.91557V17.3418H8.90924Z" fill="#F8FFFF"/>
<path d="M253.696 14.3822C253.696 12.6171 255.403 11.7137 257.947 11.7137C259.173 11.7137 262.398 11.8504 262.398 14.9349H260.38C260.38 14.0791 259.277 13.6452 257.96 13.6452C256.714 13.6452 255.98 13.9959 255.98 14.3346C255.98 14.7388 256.895 14.9408 258.109 15.1429C260.983 15.5946 262.489 16.3493 262.489 17.9777C262.489 19.725 260.672 20.6105 258.18 20.6105C256.662 20.6105 253.599 20.6462 253.599 17.3894H255.617C255.617 18.4116 256.752 18.679 258.128 18.679C259.432 18.679 260.198 18.3462 260.198 18.0075C260.198 17.639 259.205 17.4547 257.998 17.2527C255.137 16.801 253.69 16.0106 253.69 14.3822H253.696Z" fill="#F8FFFF"/>
<path d="M263.962 11.9634H268.38C271.132 11.9634 272.41 13.0688 272.41 15.0181C272.41 16.9674 271.125 18.0907 268.38 18.0907H266.161V20.355H263.962V11.9634ZM268.303 16.2424C269.698 16.2424 270.119 15.8085 270.119 15.0181C270.119 14.2277 269.698 13.8117 268.303 13.8117H266.161V16.2483H268.303V16.2424Z" fill="#F8FFFF"/>
</svg>
