<svg width="263" height="40" viewBox="0 0 263 40" fill="none" xmlns="http://www.w3.org/2000/svg">
<path d="M80.8631 21.8517H74.9576C74.9576 19.1117 72.3801 17.7729 69.2146 17.7729C65.0232 17.7729 62.2333 20.6193 62.2333 25.7742V39.1993H55.7896V12.3491H62.2333V14.3384C62.2333 15.9525 61.8579 18.0419 61.4262 19.5996H61.9642C62.3395 18.0419 62.6085 16.0025 63.4655 14.7701C65.0232 12.518 66.9001 11.5483 70.4472 11.5483C72.7055 11.5483 80.8631 11.98 80.8631 21.858V21.8517Z" fill="#293335"/>
<path d="M81.6514 25.7742C81.6514 16.9159 87.8258 11.5421 96.3087 11.5421C100.388 11.5421 109.84 11.9737 109.84 21.8517H103.935C103.935 19.1117 100.713 17.7166 96.3087 17.7166C91.0976 17.7166 88.4138 20.563 88.4138 25.7179C88.4138 31.517 91.0976 33.8254 96.8967 33.8254C101.301 33.8254 104.523 32.4304 104.523 29.6903H110.428C110.428 39.5683 100.976 40 96.8967 40C87.8257 40 81.645 35.2768 81.645 25.7679L81.6514 25.7742Z" fill="#293335"/>
<path d="M144.304 0C146.613 0 148.602 1.87676 148.602 4.29778C148.602 6.7188 146.619 8.59556 144.304 8.59556C141.99 8.59556 140.006 6.60619 140.006 4.29778C140.006 1.98936 141.883 0 144.304 0ZM141.082 12.3491H147.526V39.1992H141.082V12.3491Z" fill="#293335"/>
<path d="M176.403 21.8517H170.497C170.497 19.1117 167.92 17.7729 164.754 17.7729C160.569 17.7729 157.773 20.6193 157.773 25.7742V39.1993H151.329V12.3491H157.773V14.3384C157.773 15.9525 157.397 18.0419 156.965 19.5996H157.504C157.879 18.0419 158.148 16.0025 159.005 14.7701C160.563 12.518 162.439 11.5483 165.986 11.5483C168.239 11.5483 176.403 11.98 176.403 21.858V21.8517Z" fill="#293335"/>
<path d="M181.595 0C183.904 0 185.893 1.87676 185.893 4.29778C185.893 6.7188 183.91 8.59556 181.595 8.59556C179.281 8.59556 177.297 6.60619 177.297 4.29778C177.297 1.98936 179.174 0 181.595 0ZM178.374 12.3491H184.817V39.1992H178.374V12.3491Z" fill="#293335"/>
<path d="M188.452 12.3491H212.08V18.2546L197.473 33.2875H212.08V39.193H188.452V33.2875L203.059 18.2546H188.452V12.3491Z" fill="#293335"/>
<path d="M232.693 12.3491L243.966 39.1993H236.772L229.096 20.9446L221.42 39.1993H214.226L225.499 12.3491H232.693Z" fill="#293335"/>
<path d="M137.597 18.2546V12.3491H115.208V22.8464H111.754V28.7332H115.208V39.193H137.597V33.2875H121.651V28.7332H134.276V22.8464H121.651V18.2546H137.597Z" fill="#293335"/>
<path d="M52.9621 22.8464H49.5153V12.3491H27.1255V18.2546H43.0715V22.8464H30.441V28.7332H43.0715V33.2875H27.1255V39.193H49.5153V28.7332H52.9621V22.8464Z" fill="#FF3402"/>
<path d="M8.58929 18.2546H0V12.3491H23.6284V18.2546H15.0391V39.193H8.5954V18.2546H8.58929Z" fill="#293335"/>
<path d="M244.585 15.1392C244.585 13.2812 246.231 12.3303 248.683 12.3303C249.866 12.3303 252.975 12.4742 252.975 15.721H251.029C251.029 14.8202 249.966 14.3635 248.696 14.3635C247.495 14.3635 246.788 14.7326 246.788 15.0892C246.788 15.5145 247.67 15.7272 248.84 15.9399C251.611 16.4154 253.062 17.2099 253.062 18.924C253.062 20.7632 251.311 21.6954 248.908 21.6954C247.445 21.6954 244.492 21.7329 244.492 18.3047H246.437C246.437 19.3807 247.532 19.6622 248.858 19.6622C250.116 19.6622 250.854 19.3119 250.854 18.9553C250.854 18.5674 249.897 18.3735 248.733 18.1608C245.974 17.6853 244.579 16.8533 244.579 15.1392H244.585Z" fill="#293335"/>
<path d="M254.482 12.593H258.742C261.395 12.593 262.628 13.7566 262.628 15.8086C262.628 17.8605 261.389 19.0428 258.742 19.0428H256.603V21.4263H254.482V12.593ZM258.668 17.0973C260.013 17.0973 260.419 16.6406 260.419 15.8086C260.419 14.9765 260.013 14.5386 258.668 14.5386H256.603V17.1035H258.668V17.0973Z" fill="#293335"/>
</svg>
