<svg width="12" height="12" viewBox="0 0 12 12" fill="none" xmlns="http://www.w3.org/2000/svg">
<path d="M11.23 3C10.845 3.175 10.43 3.29 10 3.345C10.44 3.08 10.78 2.66 10.94 2.155C10.525 2.405 10.065 2.58 9.58002 2.68C9.18502 2.25 8.63002 2 8.00002 2C6.82502 2 5.86502 2.96 5.86502 4.145C5.86502 4.315 5.88502 4.48 5.92002 4.635C4.14002 4.545 2.55502 3.69 1.50002 2.395C1.31502 2.71 1.21002 3.08 1.21002 3.47C1.21002 4.215 1.58502 4.875 2.16502 5.25C1.81002 5.25 1.48002 5.15 1.19002 5C1.19002 5 1.19002 5 1.19002 5.015C1.19002 6.055 1.93002 6.925 2.91002 7.12C2.73002 7.17 2.54002 7.195 2.34502 7.195C2.21002 7.195 2.07502 7.18 1.94502 7.155C2.21502 8 3.00002 8.63 3.94502 8.645C3.21502 9.225 2.29002 9.565 1.28002 9.565C1.11002 9.565 0.94002 9.555 0.77002 9.535C1.72002 10.145 2.85002 10.5 4.06002 10.5C8.00002 10.5 10.165 7.23 10.165 4.395C10.165 4.3 10.165 4.21 10.16 4.115C10.58 3.815 10.94 3.435 11.23 3Z" fill="#FEFEFE"/>
</svg>
