<svg width="106" height="50" viewBox="0 0 106 50" fill="none" xmlns="http://www.w3.org/2000/svg">
<path d="M50.6401 0.0469055H0V11.0346H36.0674V19.5818H7.49863V30.5382H36.0674V39.0123H0V50H50.6401V30.5382H58.4368V19.5818H50.6401V0.0469055Z" fill="#FF3402"/>
<path d="M74.6576 6.71673C72.0207 6.3204 70.0241 5.92927 70.0241 5.13662C70.0241 4.47954 71.6213 3.78599 74.3406 3.78599C77.2184 3.78599 79.6145 4.64121 79.6145 6.31518H84.0072C84.0072 0.26595 76.9713 0 74.2964 0C68.7436 0 65.0227 1.77825 65.0227 5.23048C65.0227 8.41675 68.1794 9.96558 74.4168 10.8521C77.0537 11.2484 79.2152 11.6082 79.2152 12.3331C79.2152 12.9902 77.5354 13.6473 74.6956 13.6473C71.6974 13.6473 69.219 13.1206 69.219 11.1181H64.8262C64.8262 17.4958 71.5009 17.4332 74.816 17.4332C80.2547 17.4332 84.2101 15.6915 84.2101 12.2705C84.2101 9.07904 80.9329 7.60326 74.6576 6.71673Z" fill="#F8FFFF"/>
<path d="M97.0398 0.50061H87.411V16.9378H92.2096V12.5H97.046C103.042 12.5 105.838 10.2993 105.838 6.48206C105.838 2.66479 103.042 0.495422 97.046 0.495422L97.0398 0.50061ZM96.8814 8.8861H92.2031V4.11972H96.8814C99.9176 4.11972 100.837 4.97498 100.837 6.48728C100.837 7.99959 99.9176 8.8861 96.8814 8.8861Z" fill="#F8FFFF"/>
</svg>
