<svg width="12" height="12" viewBox="0 0 12 12" fill="none" xmlns="http://www.w3.org/2000/svg">
<path d="M6 1.01999C3.25 1.01999 1 3.26499 1 6.02999C1 8.52999 2.83 10.605 5.22 10.98V7.47999H3.95V6.02999H5.22V4.92499C5.22 3.66999 5.965 2.97999 7.11 2.97999C7.655 2.97999 8.225 3.07499 8.225 3.07499V4.30999H7.595C6.975 4.30999 6.78 4.69499 6.78 5.08999V6.02999H8.17L7.945 7.47999H6.78V10.98C7.95822 10.7939 9.0311 10.1927 9.80496 9.28502C10.5788 8.37729 11.0027 7.22281 11 6.02999C11 3.26499 8.75 1.01999 6 1.01999Z" fill="#FEFEFE"/>
</svg>
